<svg width="18" height="14" viewBox="0 0 18 14" fill="none" xmlns="http://www.w3.org/2000/svg">
<path d="M17.5826 5.80313V6.27188C17.5826 6.46719 17.5143 6.63321 17.3776 6.76993C17.2408 6.90665 17.0748 6.97501 16.8795 6.97501H16.6451L15.8834 12.3363C15.8444 12.5512 15.7565 12.7465 15.6198 12.9223C15.5026 13.1176 15.3365 13.2641 15.1217 13.3617C14.9264 13.4789 14.7115 13.5375 14.4772 13.5375H3.81311C3.46155 13.5375 3.14905 13.4203 2.87561 13.1859C2.6217 12.9711 2.46545 12.6879 2.40686 12.3363L1.64514 6.97501H1.41077C1.21545 6.97501 1.04944 6.90665 0.91272 6.76993C0.776001 6.63321 0.707642 6.46719 0.707642 6.27188V5.80313C0.707642 5.60782 0.776001 5.4418 0.91272 5.30508C1.04944 5.16837 1.21545 5.10001 1.41077 5.10001H3.37366L6.50842 0.793365C6.66467 0.578522 6.86975 0.451569 7.12366 0.412506C7.37756 0.373444 7.61194 0.432037 7.82678 0.588287C8.04163 0.744537 8.16858 0.949615 8.20764 1.20352C8.2467 1.45743 8.18811 1.6918 8.03186 1.90665L5.68811 5.10001H12.6022L10.2584 1.90665C10.1022 1.6918 10.0436 1.45743 10.0826 1.20352C10.1217 0.949615 10.2487 0.744537 10.4635 0.588287C10.6783 0.432037 10.9127 0.373444 11.1666 0.412506C11.4205 0.451569 11.6256 0.578522 11.7819 0.793365L14.9166 5.10001H16.8795C17.0748 5.10001 17.2408 5.16837 17.3776 5.30508C17.5143 5.4418 17.5826 5.60782 17.5826 5.80313ZM9.84827 10.9594V7.67813C9.84827 7.48282 9.77991 7.3168 9.64319 7.18008C9.50647 7.04337 9.34045 6.97501 9.14514 6.97501C8.94983 6.97501 8.78381 7.04337 8.64709 7.18008C8.51038 7.3168 8.44202 7.48282 8.44202 7.67813V10.9594C8.44202 11.1547 8.51038 11.3207 8.64709 11.4574C8.78381 11.5941 8.94983 11.6625 9.14514 11.6625C9.34045 11.6625 9.50647 11.5941 9.64319 11.4574C9.77991 11.3207 9.84827 11.1547 9.84827 10.9594ZM13.1295 10.9594V7.67813C13.1295 7.48282 13.0612 7.3168 12.9244 7.18008C12.7877 7.04337 12.6217 6.97501 12.4264 6.97501C12.2311 6.97501 12.0651 7.04337 11.9283 7.18008C11.7916 7.3168 11.7233 7.48282 11.7233 7.67813V10.9594C11.7233 11.1547 11.7916 11.3207 11.9283 11.4574C12.0651 11.5941 12.2311 11.6625 12.4264 11.6625C12.6217 11.6625 12.7877 11.5941 12.9244 11.4574C13.0612 11.3207 13.1295 11.1547 13.1295 10.9594ZM6.56702 10.9594V7.67813C6.56702 7.48282 6.49866 7.3168 6.36194 7.18008C6.22522 7.04337 6.0592 6.97501 5.86389 6.97501C5.66858 6.97501 5.50256 7.04337 5.36584 7.18008C5.22913 7.3168 5.16077 7.48282 5.16077 7.67813V10.9594C5.16077 11.1547 5.22913 11.3207 5.36584 11.4574C5.50256 11.5941 5.66858 11.6625 5.86389 11.6625C6.0592 11.6625 6.22522 11.5941 6.36194 11.4574C6.49866 11.3207 6.56702 11.1547 6.56702 10.9594Z" fill="#4EB7F0"/>
</svg>
