<svg width="69" height="65" viewBox="0 0 69 65" fill="none" xmlns="http://www.w3.org/2000/svg">
<path d="M19.982 55.7216C19.021 56.6608 18.0567 57.5968 17.099 58.5376C15.9467 59.6713 14.9742 59.6812 13.8302 58.5475C11.1779 55.9193 8.52728 53.2912 5.88325 50.6547C4.66838 49.442 4.67827 48.4994 5.89479 47.2817C7.19537 45.98 8.48112 44.6651 9.80644 43.3881C10.2185 42.991 10.3488 42.6466 10.0949 42.1078C8.98224 39.758 8.33936 37.2732 8.08551 34.6912C8.02617 34.0831 7.76902 33.7931 7.15911 33.6465C5.24367 33.1818 3.33977 32.6628 1.43752 32.1421C0.415511 31.8619 -0.209232 30.8156 0.0644025 29.7577C0.971022 26.2612 1.91555 22.7729 2.84525 19.2812C2.8947 19.0967 2.94415 18.9105 2.98701 18.7243C3.36944 17.0732 4.3898 16.5048 6.04974 16.9645C7.86957 17.4687 9.70753 17.9103 11.5241 18.4244C12.0005 18.5595 12.2197 18.403 12.467 18.0438C13.9917 15.8292 15.8841 13.9705 18.0797 12.4298C18.4951 12.1382 18.5809 11.8646 18.4523 11.4016C17.9264 9.50339 17.4253 7.59693 16.9193 5.69211C16.5879 4.4464 17.2028 3.36711 18.4556 3.03261C22.1051 2.05549 25.7563 1.08825 29.4059 0.116065C30.8829 -0.277752 31.9428 0.338513 32.317 1.84457C32.4159 2.24333 32.4851 2.64539 32.6747 3.01449C32.9615 3.23199 33.0109 3.5599 33.0934 3.87956C33.362 4.91271 33.6291 5.94586 33.9044 6.97572C34.0329 7.45851 34.2868 7.71062 34.8093 7.75511C35.4077 7.80619 35.9962 7.96932 36.5913 8.03853C37.61 8.15552 38.5149 8.59547 39.4545 8.94315C40.4634 9.35345 41.4738 9.76044 42.481 10.1757C42.8733 10.3372 43.0942 10.09 43.3299 9.85437C44.6668 8.51638 46.002 7.17675 47.3454 5.8437C48.3724 4.82373 49.0944 4.7397 50.3389 5.47625C50.4493 5.55864 50.5664 5.63114 50.662 5.73001C53.1643 8.30052 55.9468 10.5827 58.3946 13.2092C58.5628 13.3905 58.7408 13.5618 58.9023 13.748C59.865 14.8669 59.8897 15.8819 58.8924 16.976C57.7105 18.2745 56.4281 19.4757 55.1885 20.7197C54.328 21.5832 54.3264 21.5815 54.7747 22.6773C55.6088 24.7172 56.227 26.8181 56.4693 29.013C56.5666 29.8929 56.855 30.4218 57.8474 30.6245C59.0424 30.8683 60.2689 31.1056 61.37 31.6972C62.1596 32.1256 63.1404 32.058 63.8607 32.6628C64.7129 33.2131 64.6899 34.0601 64.4937 34.8675C63.7684 37.873 62.9508 40.8571 62.1315 43.8396C61.9766 44.4064 61.6552 44.9271 61.52 45.5088C61.4623 45.629 61.3881 45.746 61.3469 45.8729C60.8738 47.3098 59.898 47.8305 58.4507 47.407C57.854 47.2323 57.2688 47.0033 56.6358 46.9802C55.4127 46.7083 54.1665 46.5435 52.9632 46.1843C52.5659 46.0657 52.2791 46.2123 52.0466 46.5435C50.5482 48.6725 48.7169 50.4735 46.6102 51.9993C46.1899 52.3025 46.1207 52.6716 46.2591 53.1527C46.6778 54.6028 47.0339 56.0693 47.4179 57.5292C47.4872 57.7945 47.5531 58.0614 47.6141 58.3284C47.9932 60.0009 47.6322 60.6896 46.0465 61.3323C44.3272 61.7673 42.6046 62.1891 40.8903 62.6389C38.8825 63.1662 36.8863 63.7363 34.8753 64.257C33.5154 64.6097 32.5411 63.9291 32.167 62.4692C31.6988 60.6451 31.1829 58.8309 30.7246 57.0036C30.6125 56.5537 30.4279 56.3939 29.9614 56.3543C28.2685 56.2143 26.63 55.7628 24.9799 55.3838C24.0404 55.1235 23.0777 54.934 22.1974 54.4891C21.7821 54.2782 21.4738 54.4545 21.1804 54.7527C20.821 55.1235 20.4897 55.5338 19.982 55.7216Z" fill="#16405D"/>
<path d="M61.3715 31.6969C59.888 31.3261 58.4028 30.957 56.9192 30.5797C56.5994 30.4989 56.423 30.3094 56.3868 29.9469C56.1115 27.1721 55.4142 24.5077 54.2373 21.9783C54.0312 21.5351 54.2702 21.3258 54.529 21.0688C55.8692 19.7357 57.211 18.4027 58.5396 17.0565C59.7429 15.8371 59.7446 14.8831 58.533 13.6654C55.8082 10.9284 53.0702 8.20465 50.3388 5.47595C50.6949 5.46607 50.8548 5.75772 51.0641 5.96204C51.8471 6.73155 52.6317 7.50106 53.3933 8.29199C53.7345 8.64626 54.0263 8.6891 54.3477 8.30023C54.3658 8.2788 54.3856 8.26068 54.4054 8.24255C54.8225 7.84709 55.2296 7.14679 55.6582 7.13361C56.2252 7.11548 56.5945 7.87675 57.0346 8.31341C59.1429 10.3978 61.2347 12.5004 63.3315 14.5963C64.0782 15.3428 64.0881 15.3527 63.3167 16.1337C61.8298 17.6365 60.3429 19.1392 58.8248 20.6107C58.4143 21.0095 58.2973 21.311 58.589 21.8597C59.8188 24.1732 60.5028 26.6778 61.0122 29.2302C61.0963 29.6536 61.0649 30.1068 61.0435 30.5434C61.0237 30.9751 61.1144 31.3541 61.3715 31.6969Z" fill="#DEDEDE"/>
<path d="M46.0461 61.3336C47.6928 60.3021 47.8445 59.877 47.3121 57.9343C46.8637 56.2947 46.4532 54.6453 45.9867 53.0124C45.8318 52.4703 45.9834 52.1622 46.4318 51.8474C48.5879 50.3381 50.4259 48.5008 51.9259 46.3373C52.2226 45.9089 52.5012 45.8001 53.0172 45.9616C54.2123 46.334 55.4634 46.5202 56.6354 46.9799C55.8145 46.6949 55.4238 47.1777 54.893 47.7362C53.7095 48.982 52.4007 50.1354 50.8874 50.9708C50.2264 51.335 50.2314 51.7683 50.3781 52.3072C50.9369 54.3603 51.5122 56.4101 52.1056 58.4533C52.2902 59.091 52.2952 59.4947 51.4677 59.6364C50.4506 59.8094 49.4599 60.1324 48.4577 60.3944C47.9005 60.5394 47.35 60.686 46.8818 61.0584C46.6494 61.2446 46.3741 61.3962 46.0461 61.3336Z" fill="#DEDEDE"/>
<path d="M61.5214 45.5081C61.8428 43.7071 62.4362 41.9753 62.8796 40.2056C63.3165 38.459 63.7879 36.7206 64.2676 34.9838C64.5033 34.1336 64.411 33.3641 63.8621 32.6621C65.2847 33.2949 66.8243 33.5437 68.3128 33.954C69.0529 34.1583 69.0859 34.4598 68.9144 35.0794C68.1232 37.9366 67.3616 40.8021 66.5918 43.6675C66.4863 44.0614 66.3858 44.4585 66.3067 44.8589C66.1698 45.5575 65.7495 45.63 65.1594 45.4356C64.4357 45.1967 63.6791 45.0434 62.9802 44.7501C62.1263 44.3876 61.7966 44.8523 61.5214 45.5081Z" fill="#DEDEDE"/>
<path d="M39.4538 8.94456C38.0675 8.66444 36.7191 8.11738 35.2998 8.1009C34.0932 8.08772 33.7042 7.48134 33.513 6.42842C33.3053 5.27828 32.9591 4.15285 32.6723 3.01754C33.7454 2.72589 34.835 2.48202 35.8867 2.1294C36.6235 1.88223 36.9482 2.10633 37.1197 2.81157C37.5169 4.4478 38.0032 6.06426 38.3296 7.71368C38.473 8.4354 38.9395 8.66279 39.4538 8.94456Z" fill="#DEDEDE"/>
<path d="M19.9816 55.7211C20.0046 55.6733 20.0211 55.6206 20.0524 55.5778C20.992 54.2497 22.0998 53.7965 23.5652 54.8313C23.974 55.1197 24.5724 55.0307 24.9812 55.3866C24.1949 55.0769 23.7976 55.6437 23.3427 56.1018C22.0915 57.3607 22.0849 57.3623 20.8305 56.1413C20.5849 55.904 20.3475 55.6948 19.9816 55.7211Z" fill="#DEDEDE"/>
<path d="M35.3546 59.3348C34.8766 57.5091 34.4315 55.6735 33.9107 53.861C33.6436 52.9316 32.8755 52.5147 31.9573 52.4983C28.4858 52.434 25.2549 51.5294 22.2153 49.8668C21.3433 49.3906 20.5388 49.5487 19.8102 50.2523C18.5097 51.5129 17.2091 52.7734 15.9448 54.0686C15.5112 54.5118 15.2359 54.5909 14.7612 54.0966C13.2809 52.5526 11.7628 51.0433 10.2248 49.5553C9.80117 49.145 9.82425 48.8979 10.2298 48.5074C11.4545 47.3276 12.648 46.1148 13.8463 44.9103C14.8585 43.892 14.9722 43.312 14.3227 42.0514C12.7782 39.0558 11.9095 35.8871 11.8468 32.5125C11.832 31.743 11.5617 31.13 10.9452 30.6719C10.7028 30.4643 10.388 30.4594 10.1028 30.3704C8.38026 29.9189 6.66098 29.4509 4.93181 29.0291C4.46201 28.9154 4.36476 28.7243 4.48509 28.2827C5.07192 26.1439 5.65051 24.0001 6.20931 21.8531C6.34284 21.3406 6.59174 21.2072 7.09615 21.3489C8.73301 21.8053 10.3814 22.2238 12.0199 22.6753C13.365 23.0461 14.1299 22.7841 14.8832 21.5828C16.6354 18.7948 18.874 16.5061 21.7092 14.8039C22.7526 14.1761 23.0395 13.4264 22.7395 12.2087C22.3142 10.4802 21.8691 8.75498 21.3911 7.03966C21.2592 6.5651 21.3136 6.34101 21.8196 6.20918C23.9939 5.64235 26.1665 5.06563 28.3259 4.44772C28.8847 4.28789 29.0874 4.38016 29.2275 4.96018C29.6462 6.69033 30.1111 8.4106 30.6023 10.1226C30.9254 11.2481 31.5007 11.7045 32.6875 11.7539C36.1162 11.8956 39.3454 12.7195 42.357 14.3887C43.2933 14.9077 44.045 14.7677 44.8296 14.0031C46.1088 12.7574 47.3748 11.5002 48.6144 10.2166C49.01 9.80626 49.2655 9.78154 49.6743 10.2017C51.1661 11.7374 52.676 13.2567 54.214 14.7446C54.6508 15.1664 54.6937 15.4136 54.2321 15.8536C52.9793 17.0449 51.7727 18.284 50.5595 19.5149C49.6314 20.4574 49.5045 21.0127 50.0996 22.1678C51.7068 25.292 52.6084 28.5859 52.6513 32.1104C52.6612 32.9953 53.2101 33.6297 54.1101 33.8785C55.8789 34.3679 57.6509 34.8523 59.4361 35.2857C60.0064 35.4241 60.1268 35.6301 59.9685 36.187C59.4262 38.0836 58.9333 39.9934 58.4207 41.8982C58.2575 42.2623 58.3482 42.7072 58.0646 43.0351C56.9256 43.0088 55.8887 42.526 54.7959 42.2936C53.9931 42.1223 53.2084 41.8718 52.4172 41.6527C51.1216 41.2951 50.3386 41.5785 49.6199 42.7253C47.8726 45.5117 45.6423 47.8054 42.8169 49.5141C41.7092 50.1831 41.4356 50.8604 41.7504 52.1489C42.1708 53.8774 42.6109 55.601 43.1038 57.3097C43.267 57.8766 43.0757 58.0249 42.5878 58.1534C40.4976 58.7054 38.4141 59.2871 36.3289 59.8572C35.7832 60.0895 35.475 59.8868 35.3546 59.3348Z" fill="#F3F3F3"/>
<path d="M35.3547 59.3345C35.5377 59.7695 35.8674 59.9343 36.3273 59.8585C35.5558 60.2374 35.4586 60.1847 35.3547 59.3345Z" fill="#6E737A"/>
<path d="M58.0613 43.0352C58.1207 42.638 58.2113 42.2492 58.4174 41.8982C58.4372 42.32 58.4833 42.7501 58.0613 43.0352Z" fill="#757A81"/>
<path d="M10.1028 30.3684C10.4358 30.3223 10.7605 30.2992 10.9451 30.67C10.6484 30.6139 10.355 30.5464 10.1028 30.3684Z" fill="#B9BBBF"/>
<path d="M32.1618 44.5522C25.3457 44.5274 19.817 38.9712 19.84 32.1725C19.8631 25.3112 25.4726 19.7879 32.3926 19.8126C39.0801 19.8373 44.6534 25.4941 44.6254 32.2318C44.594 39.0997 39.0538 44.5769 32.1618 44.5522Z" fill="#16405D"/>
<path d="M35.0084 24.2588C37.6986 25.1716 39.4624 27.0435 40.2388 29.7145C41.5987 34.3876 39.0519 38.853 34.3639 40.2553C33.8562 40.3624 33.3353 40.3492 32.8226 40.4052C32.4188 40.4497 32.0858 40.308 31.7726 40.0411C27.9829 36.8164 27.078 30.8614 29.7451 26.6464C30.0088 26.2295 30.2907 25.8241 30.5924 25.4336C32.1089 23.4645 32.6149 23.7018 34.7018 24.1517C34.8073 24.1731 34.9194 24.1879 35.0084 24.2588Z" fill="white"/>
<path d="M35.009 24.2583C34.6331 24.2039 34.2326 24.2154 33.8864 24.0836C32.6452 23.6091 31.8358 24.2484 31.122 25.1085C29.3747 27.2111 28.2983 29.5855 28.422 32.3702C28.5571 35.4087 29.7621 37.9694 32.0468 40.006C32.2743 40.2087 32.5199 40.2515 32.8034 40.2482C33.3243 40.2433 33.8452 40.2499 34.3661 40.2532C28.6198 41.9372 22.7861 36.6989 23.879 30.8345C24.479 27.6082 26.2609 25.3672 29.3797 24.2418C30.0786 23.9716 30.8171 23.8941 31.549 23.7821C32.7309 23.7244 33.9194 23.6338 35.009 24.2583Z" fill="#FC7B54"/>
<path d="M31.5466 23.7837C30.8477 24.0506 30.1109 24.1445 29.3773 24.2434C30.0433 23.8199 30.7735 23.6996 31.5466 23.7837Z" fill="#9FA9B6"/>
</svg>
