<svg width="63" height="63" viewBox="0 0 63 63" fill="none" xmlns="http://www.w3.org/2000/svg">
<g clip-path="url(#clip0)">
<path d="M62.7083 13.1909C61.7009 20.6562 59.0668 27.4741 54.5572 33.5353C50.6934 38.7303 45.8927 42.8475 40.1393 45.8216C39.3259 46.2432 39.0207 46.7142 39.0472 47.6368C39.1177 50.0164 39.0789 52.3979 39.0701 54.7793C39.0524 59.5827 35.642 62.989 30.8537 62.9961C30.2062 62.9978 29.5605 62.9996 28.913 62.9961C27.7044 62.989 27.0692 62.5427 26.6864 61.3961C25.4584 57.7252 24.2322 54.0543 23.0219 50.3781C22.8596 49.8877 22.6091 49.4855 22.2474 49.1274C19.4404 46.3279 16.6281 43.5355 13.8457 40.7113C13.3182 40.1768 12.6725 39.951 12.0126 39.7287C8.59691 38.5768 5.17767 37.4443 1.75844 36.3012C0.481078 35.8743 -0.00940094 35.2217 0.00294923 33.9004C0.018828 32.2634 -0.134667 30.6229 0.504014 29.0317C1.73727 25.9553 4.52135 23.9778 7.85943 23.9443C10.4459 23.9196 13.0359 23.9055 15.6224 23.9584C16.381 23.9743 16.7939 23.7168 17.1291 23.0658C20.7036 16.1438 25.8572 10.6666 32.4239 6.51409C36.8047 3.74459 41.556 1.86768 46.6372 0.830441C47.4929 0.486458 48.4386 0.609939 49.3066 0.327697C51.9637 0.0966111 54.6225 -0.118599 57.2937 0.0719149C58.4634 0.154824 59.6384 0.18834 60.7976 0.345337C61.865 0.489986 62.5037 1.17972 62.7066 2.24871C63.0612 5.89845 63.1318 9.54467 62.7083 13.1909Z" fill="#16405D"/>
<path d="M4.13537 59.7311C3.36083 59.1684 3.03091 58.4064 3.05208 57.4538C3.10501 55.0459 3.08913 52.6345 3.18617 50.2284C3.35378 46.0865 7.20527 42.6678 11.3426 42.876C13.0028 42.9589 14.4125 43.4352 15.5328 44.7511C16.3673 45.7337 17.3024 46.6421 18.2675 47.4959C20.0424 49.0677 20.3211 51.0786 19.9312 53.2131C19.3331 56.4818 17.3059 58.5563 14.1813 59.5935C13.3257 59.9799 12.3959 59.8934 11.5102 59.9093C9.58532 59.9446 7.66222 60.0681 5.7356 60.031C5.17807 60.0187 4.64525 59.9605 4.13537 59.7311Z" fill="#16405D"/>
<path d="M39.9368 7.368C40.5243 7.13162 41.1118 6.89525 41.6993 6.65887C42.0292 6.47541 42.4139 6.45601 42.7561 6.30783C44.2629 5.80685 45.796 5.40818 47.3433 5.06067C47.8462 4.93543 48.3384 4.75373 48.8712 4.81547C50.4468 4.71845 52.0117 4.5103 53.5925 4.43621C54.7023 4.38505 55.7909 4.27216 56.9094 4.43268C57.5587 4.52617 57.7739 4.78196 57.8039 5.36585C57.8745 6.72237 57.7263 8.07361 57.5481 9.40367C56.5248 17.0471 53.409 23.7663 48.3084 29.5293C44.4305 33.9111 39.8433 37.3968 34.5256 39.8964C31.1082 41.5034 27.5884 42.7806 23.8674 43.4862C23.1635 43.6203 22.6465 43.4827 22.1349 42.9517C20.5858 41.3429 19.0032 39.7659 17.3977 38.2136C16.9002 37.7337 16.8119 37.2222 16.9848 36.6277C17.2389 35.758 17.3518 34.8637 17.5141 33.9799C17.9235 31.8561 18.6751 29.8433 19.4778 27.8447C19.6295 27.5624 19.6631 27.2308 19.8395 26.9574C21.9972 22.4345 24.8078 18.379 28.4546 14.9215C31.5951 11.9439 35.1643 9.60124 39.0581 7.73492C39.3316 7.56381 39.6633 7.53558 39.9368 7.368Z" fill="#DEDEDE"/>
<path d="M17.5141 33.9744C17.6182 34.904 17.2971 35.7684 17.0819 36.6433C16.9337 37.2466 17.0413 37.6911 17.5018 38.1392C19.1038 39.6933 20.6811 41.2756 22.2389 42.8738C22.6588 43.306 23.0787 43.403 23.6557 43.2937C29.4232 42.1982 34.7585 39.9879 39.6245 36.7668C44.9862 33.2176 49.4093 28.7123 52.6486 23.0886C54.5823 19.73 55.969 16.1772 56.7965 12.4075C57.2976 10.1249 57.5675 7.80522 57.5904 5.45908C57.5975 4.77112 57.354 4.58237 56.6748 4.52239C54.4447 4.32835 52.2516 4.59472 50.0533 4.87872C49.6775 4.92812 49.2911 4.88402 48.91 4.88225C48.8571 4.81169 48.8765 4.76583 48.9594 4.74113C49.0106 4.74466 49.0618 4.73937 49.1112 4.72349C49.3793 4.51534 49.7322 4.74995 50.0039 4.55591C52.3769 4.43066 54.7393 4.10785 57.1264 4.31071C58.589 4.43596 58.582 4.39715 58.6508 5.91067C59.0266 14.1257 57.1352 21.7603 52.7033 28.707C48.5536 35.2145 42.9519 40.0673 35.87 43.2055C33.1988 44.3891 30.4395 45.2464 27.5883 45.8409C26.7679 45.9944 25.9616 46.3525 25.1077 46.012C22.5106 43.4295 19.9224 40.8399 17.3059 38.275C16.8807 37.857 16.7061 37.4371 16.849 36.8709C17.0924 35.9113 17.126 34.9022 17.5141 33.9744Z" fill="#B5B5B5"/>
<path d="M34.8467 52.2551C34.7779 53.2959 34.9878 54.5642 34.7302 55.8096C34.3474 57.6601 32.8248 58.8402 30.9405 58.812C30.4994 58.8049 30.2542 58.6673 30.1077 58.221C29.3032 55.7461 28.4775 53.2782 27.6395 50.8157C27.4842 50.3588 27.5107 50.1418 28.0611 50.0325C30.0989 49.6267 32.1226 49.1416 34.0827 48.4431C34.7796 48.1944 34.8767 48.4378 34.8555 49.0481C34.8237 50.0448 34.8467 51.0432 34.8467 52.2551Z" fill="white"/>
<path d="M11.0428 28.1695C12.0696 28.1695 13.0964 28.1836 14.1232 28.1642C14.6543 28.1537 14.776 28.2948 14.5925 28.8328C13.9009 30.8561 13.3575 32.9235 12.9553 35.0245C12.8794 35.4179 12.7171 35.5184 12.3572 35.3967C9.83244 34.55 7.30948 33.7032 4.78122 32.8671C4.36837 32.7313 4.27839 32.4543 4.2678 32.0609C4.21135 29.9282 5.77276 28.2595 7.96403 28.1783C8.9891 28.1395 10.0177 28.1713 11.0445 28.1713C11.0428 28.1713 11.0428 28.1695 11.0428 28.1695Z" fill="white"/>
<path d="M25.1113 46.0123C25.9564 46.2081 26.7591 45.8165 27.5919 45.8412C26.7838 46.1658 25.9793 46.5433 25.1113 46.0123Z" fill="#696977"/>
<path d="M48.9594 4.74341C48.9452 4.79104 48.9294 4.83867 48.9117 4.88453C48.3895 4.94275 47.8673 5.00272 47.345 5.06094C47.8337 4.69931 48.3877 4.67991 48.9594 4.74341Z" fill="#676875"/>
<path d="M42.7578 6.30634C42.4473 6.54977 42.0962 6.66973 41.701 6.65738C41.9815 6.32751 42.3555 6.27811 42.7578 6.30634Z" fill="#6E6D7D"/>
<path d="M39.9369 7.36781C39.6952 7.61301 39.4059 7.74531 39.0565 7.7312C39.2806 7.43838 39.5841 7.34135 39.9369 7.36781Z" fill="#696977"/>
<path d="M19.8394 26.9524C19.8447 27.2999 19.7142 27.591 19.4777 27.8397C19.4424 27.4816 19.536 27.1747 19.8394 26.9524Z" fill="#696977"/>
<path d="M50.0058 4.55591C49.7412 4.78876 49.4218 4.72879 49.1131 4.7235C49.3654 4.4342 49.697 4.55415 50.0058 4.55591Z" fill="#676875"/>
<path d="M10.194 55.7003C9.48827 55.7003 8.78255 55.6791 8.07859 55.7073C7.56341 55.7285 7.31641 55.5609 7.33582 55.0088C7.39227 53.4529 7.35699 51.8918 7.48049 50.3412C7.6234 48.5296 9.25362 47.1148 11.0726 47.1025C11.6778 47.0989 12.2053 47.2559 12.6482 47.7358C13.3856 48.5331 14.176 49.281 14.9453 50.0501C16.385 51.4896 16.2262 53.5447 14.5801 54.7971C13.8302 55.3669 12.994 55.6756 12.0448 55.665C11.4273 55.6579 10.8097 55.6632 10.194 55.6632C10.194 55.6756 10.194 55.6879 10.194 55.7003Z" fill="#FC7B54"/>
<path d="M37.629 18.9576C37.4226 15.2743 40.8841 12.4448 44.0193 12.4096C47.5479 12.3708 50.7202 15.3184 50.7008 18.9929C50.6831 22.5244 47.6679 25.5391 44.1075 25.5232C40.4801 25.5074 37.4367 22.4203 37.629 18.9576Z" fill="white"/>
</g>
<defs>
<clipPath id="clip0">
<rect width="63" height="63" fill="white"/>
</clipPath>
</defs>
</svg>
