<svg width="61" height="69" viewBox="0 0 61 69" fill="none" xmlns="http://www.w3.org/2000/svg">
<path d="M23.2372 59.6469C22.019 58.7298 20.7108 57.9325 19.6013 56.8729C17.6692 55.0266 16.0537 52.9438 14.6385 50.7049C14.0363 49.7514 14.2133 48.9632 15.1661 48.1037C15.9901 47.3746 17.1509 47.5534 17.8772 48.5615C18.726 49.7378 19.4911 50.9717 20.4393 52.0782C22.0113 53.9124 23.7633 55.5162 25.9856 56.6076C28.9387 58.0583 31.8655 58.1113 34.8497 56.7137C37.8417 55.3131 39.9817 53.0196 41.8796 50.4593C43.2049 48.6721 44.2539 46.7288 45.2269 44.7446C45.3852 44.4232 45.5125 44.0943 45.5714 43.7426C46.037 40.9762 46.4544 38.2021 46.9122 35.4357C47.0286 34.7354 46.9231 34.6551 46.2511 34.7263C43.9606 34.9673 41.712 34.6414 39.4866 34.1715C36.1005 33.456 32.9596 32.0902 29.8714 30.5941C27.4862 29.439 25.1491 28.1824 22.6925 27.1683C21.5985 26.7165 20.4889 26.286 19.3018 26.1132C17.6134 25.8662 16.1158 26.1905 14.9302 27.4881C14.6369 27.8095 14.3684 28.1475 14.0938 28.4825C13.428 29.2935 13.2123 30.1318 13.4218 31.2186C14.1869 35.1902 14.9023 39.1708 15.5928 43.1559C15.6704 43.6077 15.7201 44.0594 15.6503 44.5126C15.5153 45.3842 14.938 45.9239 14.0845 45.9951C12.4302 46.2589 10.7759 46.5105 9.12475 46.7894C5.6812 47.37 2.76217 45.3524 2.14764 41.9463C1.45862 38.1264 0.766498 34.3064 0.0898925 30.4834C-0.405147 27.6821 1.18239 24.9961 3.91675 24.0729C4.44748 23.894 4.58715 23.6576 4.64146 23.1331C5.34134 16.2754 8.30692 10.5379 13.6701 6.03277C17.5311 2.78885 22.0206 0.842498 27.0657 0.228579C35.0887 -0.749145 42.1744 1.40791 48.132 6.73461C52.9024 10.9987 55.6507 16.3451 56.3102 22.6647C56.3863 23.3893 56.5368 23.8652 57.3748 24.2063C60.1231 25.3265 61.422 27.9656 60.8773 30.8169C60.1541 34.605 59.4822 38.4038 58.7885 42.1979C58.2019 45.4009 55.1339 47.4504 51.8642 46.8364C51.0277 46.6788 50.1727 46.6106 49.3486 46.4105C48.8784 46.2968 48.7279 46.4499 48.5448 46.8213C47.1217 49.7181 45.4287 52.4511 43.2871 54.9068C41.7865 56.6273 40.05 58.0825 38.1303 59.3361C37.8743 59.4832 37.7237 59.8379 37.3327 59.7272C36.8594 59.4983 36.4078 59.5393 35.9267 59.753C35.4844 59.9501 35.0452 60.1774 34.5688 60.2851C33.99 60.4154 34.0164 61.046 33.6238 61.3234C31.9819 61.8812 30.2982 61.9601 28.5973 61.6918C27.3202 61.4902 26.0787 61.1491 24.9008 60.6155C24.6665 60.4897 24.4337 60.3578 24.1808 60.2669C23.9123 59.9955 23.4064 60.0683 23.2372 59.6469Z" fill="#16405D"/>
<path d="M23.2381 59.6464C23.5656 59.804 23.893 59.9617 24.2204 60.1193C24.4175 60.2815 24.6394 60.4134 24.8148 60.6014C25.1205 61.1031 25.2524 61.6776 25.5333 62.193C26.6863 64.3031 28.502 65.3414 30.9198 65.1898C33.2149 65.0458 34.9204 63.9393 35.85 61.8216C35.9322 61.6352 35.9912 61.4411 36.0641 61.2532C36.5359 60.0541 37.1287 59.7206 38.4416 59.9132C43.0956 61.7534 47.7526 63.5906 52.4051 65.4384C53.5364 65.8871 54.0299 66.8906 53.6279 67.8577C53.2353 68.8021 52.1289 69.2417 51.0286 68.8203C48.991 68.0396 46.9705 67.2165 44.9423 66.4116C43.1778 65.7098 41.4056 65.0231 39.652 64.297C39.2315 64.1227 39.0375 64.1924 38.8032 64.5653C35.0291 70.5423 25.7832 70.4574 22.2791 64.4334C22.0122 63.9741 21.7639 64.1075 21.4178 64.2455C17.6266 65.7568 13.8339 67.2635 10.0397 68.7672C8.94096 69.2038 7.99899 68.8582 7.5474 67.8608C7.12219 66.924 7.56602 65.8705 8.61507 65.4475C13.1372 63.6224 17.6654 61.8125 22.1891 59.9935C22.532 59.8571 22.9417 59.9162 23.2381 59.6464Z" fill="#16405D"/>
<path d="M11.7233 21.6353C12.9493 21.8035 13.6926 21.42 14.1426 20.2725C15.3329 17.2423 17.1067 14.6275 19.7495 12.619C21.7451 11.1031 24.0077 10.1527 26.4907 9.74189C29.6533 9.21892 32.83 9.20983 35.9275 10.0708C40.9694 11.473 44.4269 14.6669 46.5017 19.3418C47.526 21.6489 48.246 24.0561 48.4322 26.5481C48.5285 27.8457 48.1126 29.1857 47.8798 30.4969C47.8131 30.8728 47.391 30.7819 47.0961 30.8213C43.1591 31.3564 39.4688 30.4287 35.8406 29.0508C32.0991 27.6289 28.6788 25.5749 25.0599 23.9121C22.9664 22.951 20.797 22.1885 18.4738 22.1097C16.5356 22.0445 14.7711 22.6766 13.2472 23.8833C12.8903 24.1667 12.5318 24.4502 12.1283 24.77C11.9437 24.1167 11.759 23.5119 11.1522 23.1723C11.219 22.6175 11.2671 22.0536 11.7233 21.6353Z" fill="#DEDEDE"/>
<path d="M11.7236 21.6354C11.5079 22.1386 11.5359 22.7298 11.1526 23.174C10.4635 22.8026 9.75434 22.9299 9.04205 23.0906C8.55942 23.1982 8.36079 23.1224 8.45545 22.5403C9.52312 15.9813 12.7835 10.7607 18.5114 7.15598C26.5515 2.09759 36.6199 2.5478 44.1619 8.26558C48.8066 11.7869 51.5549 16.4663 52.545 22.1265C52.5667 22.2508 52.5946 22.3872 52.562 22.5024C52.5015 22.7177 52.8321 23.1118 52.3153 23.1224C51.9258 23.13 51.5937 23.0951 51.4773 22.5631C50.9435 20.1362 50.0465 17.8351 48.7973 15.6705C46.4819 11.6596 43.1935 8.70366 38.7522 7.09535C35.0044 5.73866 31.1171 5.47339 27.1583 5.97968C22.3771 6.59057 18.2786 8.51418 14.9918 11.984C13.0613 14.0213 11.5902 16.3481 10.6389 18.9751C10.1764 20.259 10.5023 21.0351 11.7236 21.6354Z" fill="white"/>
<path d="M8.21132 43.274C6.97605 43.2649 6.08684 42.5858 5.88975 41.5368C5.15418 37.6001 4.43412 33.6604 3.73579 29.7177C3.54181 28.6248 4.36274 27.6137 5.55921 27.3772C6.39255 27.2135 7.23831 27.1029 8.06544 26.921C8.61945 26.7982 8.81964 26.9634 8.9143 27.5106C9.53194 31.0592 10.1806 34.6018 10.8231 38.1458C11.0605 39.4586 11.3135 40.7698 11.5462 42.084C11.5897 42.3296 11.7635 42.651 11.301 42.7313C10.2148 42.9208 9.12535 43.1133 8.21132 43.274Z" fill="#FC7B54"/>
<path d="M52.8675 43.2723C52.0481 43.1344 51.0844 42.9646 50.1191 42.813C49.77 42.7585 49.8212 42.5675 49.8615 42.3204C50.3271 39.46 50.7802 36.5996 51.2411 33.7391C51.5779 31.6503 51.9519 29.566 52.2421 27.4711C52.3228 26.8875 52.5664 26.8344 53.0428 26.9254C53.9025 27.0891 54.7669 27.227 55.6266 27.3908C56.7564 27.606 57.5245 28.6853 57.3213 29.8192C56.6214 33.7119 55.9122 37.6015 55.1921 41.4897C54.9904 42.575 54.0996 43.2799 52.8675 43.2723Z" fill="#FC7B54"/>
<path d="M37.3772 59.6768C36.2366 60.418 34.9811 60.8819 33.6434 61.1426C33.8359 60.559 34.0469 60.0618 34.8399 59.9982C35.2899 59.9618 35.7012 59.5843 36.1559 59.4358C36.5826 59.2948 37.0652 59.1508 37.3772 59.6768Z" fill="#474C54"/>
</svg>
