<svg width="52" height="52" viewBox="0 0 52 52" fill="none" xmlns="http://www.w3.org/2000/svg">
<circle cx="26" cy="26" r="26" fill="#FC7B54"/>
<path d="M26.7031 15.9531C26.7031 16.7917 26.9577 17.5853 27.4668 18.334C28.0059 19.0827 28.6348 19.7865 29.3535 20.4453C30.1022 21.1042 30.8359 21.8079 31.5547 22.5566C32.3034 23.3053 32.9323 24.2637 33.4414 25.4316C33.9805 26.5697 34.25 27.8424 34.25 29.25C34.25 31.6159 33.3965 33.6374 31.6895 35.3145C30.0124 37.0215 27.9909 37.875 25.625 37.875C23.2591 37.875 21.2227 37.0215 19.5156 35.3145C17.8385 33.6374 17 31.6159 17 29.25C17 26.9141 17.8236 24.8926 19.4707 23.1855C19.8001 22.8262 20.1895 22.7363 20.6387 22.916C21.0879 23.0957 21.3125 23.4401 21.3125 23.9492V27.7676C21.3125 28.5762 21.582 29.265 22.1211 29.834C22.6901 30.403 23.3639 30.6875 24.1426 30.6875C24.9512 30.6875 25.64 30.418 26.209 29.8789C26.778 29.3099 27.0625 28.6211 27.0625 27.8125C27.0625 27.3034 26.9128 26.8092 26.6133 26.3301C26.3438 25.8509 26.0143 25.4167 25.625 25.0273C25.2357 24.638 24.8164 24.2337 24.3672 23.8145C23.9479 23.3952 23.5885 22.931 23.2891 22.4219C23.0195 21.9128 22.8398 21.3438 22.75 20.7148C22.6602 20.0859 22.765 19.3223 23.0645 18.4238C23.3939 17.4954 23.9479 16.4772 24.7266 15.3691C25.026 14.9199 25.4303 14.7702 25.9395 14.9199C26.4486 15.0697 26.7031 15.4141 26.7031 15.9531Z" fill="white"/>
</svg>
