<svg width="16" height="14" viewBox="0 0 16 14" fill="none" xmlns="http://www.w3.org/2000/svg">
<path d="M14.2096 1.32071C15.1276 2.10196 15.6158 3.09805 15.6744 4.30899C15.733 5.51993 15.3424 6.54532 14.5026 7.38516L8.84827 13.2445C8.65295 13.4398 8.42834 13.5375 8.17444 13.5375C7.92053 13.5375 7.69592 13.4398 7.50061 13.2445L1.84631 7.38516C1.00647 6.54532 0.615845 5.51993 0.674438 4.30899C0.733032 3.09805 1.22131 2.10196 2.13928 1.32071C2.94006 0.637115 3.85803 0.344147 4.89319 0.441803C5.94788 0.519928 6.84631 0.93985 7.5885 1.70157L8.17444 2.28751L8.76038 1.70157C9.50256 0.93985 10.3912 0.519928 11.4264 0.441803C12.4811 0.344147 13.4088 0.637115 14.2096 1.32071Z" fill="#4EB7F0"/>
</svg>
