<svg width="155" height="36" viewBox="0 0 155 36" fill="none" xmlns="http://www.w3.org/2000/svg">
<mask id="path-1-outside-1" maskUnits="userSpaceOnUse" x="43.3533" y="10.5905" width="111" height="16" fill="black">
<rect fill="white" x="43.3533" y="10.5905" width="111" height="16"/>
<path d="M44.3533 25.2922V11.7834H45.8694V19.8501L53.5843 11.7834H55.5418L49.7844 17.6887L55.7913 25.2922H53.8913L48.7289 18.7501L45.8694 21.6641V25.2922H44.3533Z"/>
<path d="M62.5655 25.4852C60.5056 25.4852 58.6761 24.7647 57.0768 23.3238L58.0172 22.2045C58.7336 22.8606 59.4501 23.3431 60.1666 23.6519C60.8958 23.9606 61.7147 24.115 62.6231 24.115C63.5187 24.115 64.2415 23.9027 64.7917 23.4782C65.3418 23.0408 65.6169 22.4747 65.6169 21.7799C65.6169 21.1238 65.3738 20.6027 64.8876 20.2168C64.4014 19.8308 63.4803 19.4963 62.1241 19.2133C60.5248 18.8659 59.3733 18.3963 58.6697 17.8045C57.966 17.2127 57.6141 16.37 57.6141 15.2764C57.6141 14.2086 58.0299 13.3273 58.8616 12.6326C59.6932 11.9378 60.7487 11.5905 62.0281 11.5905C63.8065 11.5905 65.3802 12.1437 66.7492 13.2501L65.8664 14.4273C64.6765 13.4495 63.3843 12.9606 61.9897 12.9606C61.1325 12.9606 60.4417 13.1729 59.9171 13.5975C59.3925 14.0092 59.1302 14.5367 59.1302 15.1799C59.1302 15.8489 59.3797 16.3764 59.8787 16.7624C60.3905 17.1484 61.3564 17.4957 62.7766 17.8045C64.2991 18.139 65.4058 18.6086 66.0967 19.2133C66.8004 19.8051 67.1522 20.622 67.1522 21.6641C67.1522 22.8092 66.7236 23.7355 65.8664 24.4431C65.0092 25.1378 63.9089 25.4852 62.5655 25.4852Z"/>
<path d="M70.2352 25.2922V11.7834H79.946V13.1729H71.7514V17.7852H79.0824V19.1747H71.7514V23.9027H80.042V25.2922H70.2352Z"/>
<path d="M83.0919 25.2922V11.7834H84.5121L92.9754 22.6098V11.7834H94.4531V25.2922H93.2441L84.5696 14.215V25.2922H83.0919Z"/>
<path d="M98.2537 25.2922V11.7834H99.789L104.683 19.1554L109.577 11.7834H111.112V25.2922H109.596V14.3501L104.702 21.587H104.625L99.7315 14.3694V25.2922H98.2537Z"/>
<path d="M113.763 25.2922L119.885 11.6869H121.306L127.428 25.2922H125.796L124.223 21.722H116.911L115.318 25.2922H113.763ZM117.506 20.3519H123.628L120.576 13.4624L117.506 20.3519Z"/>
<path d="M130.077 25.2922V11.7834H135.853C137.504 11.7834 138.777 12.2337 139.672 13.1343C140.363 13.8291 140.709 14.7296 140.709 15.8361C140.709 16.9168 140.376 17.7916 139.711 18.4606C139.045 19.1296 138.163 19.5671 137.062 19.7729L141.189 25.2922H139.327L135.431 20.0431H131.593V25.2922H130.077ZM131.593 18.6729H135.719C136.743 18.6729 137.574 18.422 138.214 17.9203C138.854 17.4185 139.173 16.7302 139.173 15.8554C139.173 15.0191 138.866 14.3694 138.252 13.9062C137.651 13.4302 136.813 13.1922 135.738 13.1922H131.593V18.6729Z"/>
<path d="M147.496 25.2922V13.1922H142.986V11.7834H153.541V13.1922H149.031V25.2922H147.496Z"/>
</mask>
<path d="M44.3533 25.2922V11.7834H45.8694V19.8501L53.5843 11.7834H55.5418L49.7844 17.6887L55.7913 25.2922H53.8913L48.7289 18.7501L45.8694 21.6641V25.2922H44.3533Z" fill="#333333"/>
<path d="M62.5655 25.4852C60.5056 25.4852 58.6761 24.7647 57.0768 23.3238L58.0172 22.2045C58.7336 22.8606 59.4501 23.3431 60.1666 23.6519C60.8958 23.9606 61.7147 24.115 62.6231 24.115C63.5187 24.115 64.2415 23.9027 64.7917 23.4782C65.3418 23.0408 65.6169 22.4747 65.6169 21.7799C65.6169 21.1238 65.3738 20.6027 64.8876 20.2168C64.4014 19.8308 63.4803 19.4963 62.1241 19.2133C60.5248 18.8659 59.3733 18.3963 58.6697 17.8045C57.966 17.2127 57.6141 16.37 57.6141 15.2764C57.6141 14.2086 58.0299 13.3273 58.8616 12.6326C59.6932 11.9378 60.7487 11.5905 62.0281 11.5905C63.8065 11.5905 65.3802 12.1437 66.7492 13.2501L65.8664 14.4273C64.6765 13.4495 63.3843 12.9606 61.9897 12.9606C61.1325 12.9606 60.4417 13.1729 59.9171 13.5975C59.3925 14.0092 59.1302 14.5367 59.1302 15.1799C59.1302 15.8489 59.3797 16.3764 59.8787 16.7624C60.3905 17.1484 61.3564 17.4957 62.7766 17.8045C64.2991 18.139 65.4058 18.6086 66.0967 19.2133C66.8004 19.8051 67.1522 20.622 67.1522 21.6641C67.1522 22.8092 66.7236 23.7355 65.8664 24.4431C65.0092 25.1378 63.9089 25.4852 62.5655 25.4852Z" fill="#333333"/>
<path d="M70.2352 25.2922V11.7834H79.946V13.1729H71.7514V17.7852H79.0824V19.1747H71.7514V23.9027H80.042V25.2922H70.2352Z" fill="#333333"/>
<path d="M83.0919 25.2922V11.7834H84.5121L92.9754 22.6098V11.7834H94.4531V25.2922H93.2441L84.5696 14.215V25.2922H83.0919Z" fill="#333333"/>
<path d="M98.2537 25.2922V11.7834H99.789L104.683 19.1554L109.577 11.7834H111.112V25.2922H109.596V14.3501L104.702 21.587H104.625L99.7315 14.3694V25.2922H98.2537Z" fill="#333333"/>
<path d="M113.763 25.2922L119.885 11.6869H121.306L127.428 25.2922H125.796L124.223 21.722H116.911L115.318 25.2922H113.763ZM117.506 20.3519H123.628L120.576 13.4624L117.506 20.3519Z" fill="#333333"/>
<path d="M130.077 25.2922V11.7834H135.853C137.504 11.7834 138.777 12.2337 139.672 13.1343C140.363 13.8291 140.709 14.7296 140.709 15.8361C140.709 16.9168 140.376 17.7916 139.711 18.4606C139.045 19.1296 138.163 19.5671 137.062 19.7729L141.189 25.2922H139.327L135.431 20.0431H131.593V25.2922H130.077ZM131.593 18.6729H135.719C136.743 18.6729 137.574 18.422 138.214 17.9203C138.854 17.4185 139.173 16.7302 139.173 15.8554C139.173 15.0191 138.866 14.3694 138.252 13.9062C137.651 13.4302 136.813 13.1922 135.738 13.1922H131.593V18.6729Z" fill="#333333"/>
<path d="M147.496 25.2922V13.1922H142.986V11.7834H153.541V13.1922H149.031V25.2922H147.496Z" fill="#333333"/>
<path d="M44.3533 25.2922V11.7834H45.8694V19.8501L53.5843 11.7834H55.5418L49.7844 17.6887L55.7913 25.2922H53.8913L48.7289 18.7501L45.8694 21.6641V25.2922H44.3533Z" stroke="#333333" stroke-width="1.2" mask="url(#path-1-outside-1)"/>
<path d="M62.5655 25.4852C60.5056 25.4852 58.6761 24.7647 57.0768 23.3238L58.0172 22.2045C58.7336 22.8606 59.4501 23.3431 60.1666 23.6519C60.8958 23.9606 61.7147 24.115 62.6231 24.115C63.5187 24.115 64.2415 23.9027 64.7917 23.4782C65.3418 23.0408 65.6169 22.4747 65.6169 21.7799C65.6169 21.1238 65.3738 20.6027 64.8876 20.2168C64.4014 19.8308 63.4803 19.4963 62.1241 19.2133C60.5248 18.8659 59.3733 18.3963 58.6697 17.8045C57.966 17.2127 57.6141 16.37 57.6141 15.2764C57.6141 14.2086 58.0299 13.3273 58.8616 12.6326C59.6932 11.9378 60.7487 11.5905 62.0281 11.5905C63.8065 11.5905 65.3802 12.1437 66.7492 13.2501L65.8664 14.4273C64.6765 13.4495 63.3843 12.9606 61.9897 12.9606C61.1325 12.9606 60.4417 13.1729 59.9171 13.5975C59.3925 14.0092 59.1302 14.5367 59.1302 15.1799C59.1302 15.8489 59.3797 16.3764 59.8787 16.7624C60.3905 17.1484 61.3564 17.4957 62.7766 17.8045C64.2991 18.139 65.4058 18.6086 66.0967 19.2133C66.8004 19.8051 67.1522 20.622 67.1522 21.6641C67.1522 22.8092 66.7236 23.7355 65.8664 24.4431C65.0092 25.1378 63.9089 25.4852 62.5655 25.4852Z" stroke="#333333" stroke-width="1.2" mask="url(#path-1-outside-1)"/>
<path d="M70.2352 25.2922V11.7834H79.946V13.1729H71.7514V17.7852H79.0824V19.1747H71.7514V23.9027H80.042V25.2922H70.2352Z" stroke="#333333" stroke-width="1.2" mask="url(#path-1-outside-1)"/>
<path d="M83.0919 25.2922V11.7834H84.5121L92.9754 22.6098V11.7834H94.4531V25.2922H93.2441L84.5696 14.215V25.2922H83.0919Z" stroke="#333333" stroke-width="1.2" mask="url(#path-1-outside-1)"/>
<path d="M98.2537 25.2922V11.7834H99.789L104.683 19.1554L109.577 11.7834H111.112V25.2922H109.596V14.3501L104.702 21.587H104.625L99.7315 14.3694V25.2922H98.2537Z" stroke="#333333" stroke-width="1.2" mask="url(#path-1-outside-1)"/>
<path d="M113.763 25.2922L119.885 11.6869H121.306L127.428 25.2922H125.796L124.223 21.722H116.911L115.318 25.2922H113.763ZM117.506 20.3519H123.628L120.576 13.4624L117.506 20.3519Z" stroke="#333333" stroke-width="1.2" mask="url(#path-1-outside-1)"/>
<path d="M130.077 25.2922V11.7834H135.853C137.504 11.7834 138.777 12.2337 139.672 13.1343C140.363 13.8291 140.709 14.7296 140.709 15.8361C140.709 16.9168 140.376 17.7916 139.711 18.4606C139.045 19.1296 138.163 19.5671 137.062 19.7729L141.189 25.2922H139.327L135.431 20.0431H131.593V25.2922H130.077ZM131.593 18.6729H135.719C136.743 18.6729 137.574 18.422 138.214 17.9203C138.854 17.4185 139.173 16.7302 139.173 15.8554C139.173 15.0191 138.866 14.3694 138.252 13.9062C137.651 13.4302 136.813 13.1922 135.738 13.1922H131.593V18.6729Z" stroke="#333333" stroke-width="1.2" mask="url(#path-1-outside-1)"/>
<path d="M147.496 25.2922V13.1922H142.986V11.7834H153.541V13.1922H149.031V25.2922H147.496Z" stroke="#333333" stroke-width="1.2" mask="url(#path-1-outside-1)"/>
<path fill-rule="evenodd" clip-rule="evenodd" d="M15.8118 0C19.4434 0 22.3958 7.87976 22.3958 17.5439C22.3958 27.208 19.4295 35.0877 15.8118 35.0877C12.194 35.0877 9.22778 27.208 9.22778 17.5439C9.22778 7.87976 12.194 0 15.8118 0Z" fill="url(#paint0_linear)"/>
<path fill-rule="evenodd" clip-rule="evenodd" d="M25.1264 11.3335C29.3366 9.59101 33.0964 9.85239 33.644 11.2394C34.1915 12.6265 31.2183 15.1811 27.0218 16.9131C26.5644 17.1048 26.107 17.2617 25.6565 17.4289C26.107 17.5858 26.5644 17.7565 27.0426 17.9482C31.2529 19.6908 34.2261 22.2314 33.6613 23.6219C33.0964 25.0125 29.1564 24.9428 24.9323 23.2107C20.7082 21.4786 16.4216 19.3492 16.4216 17.4255C16.4216 15.5017 20.9195 13.0656 25.1264 11.3335Z" fill="url(#paint1_linear)"/>
<path fill-rule="evenodd" clip-rule="evenodd" d="M24.7625 1.65193C28.8723 3.58809 32.0774 7.04889 33.7063 11.3091H33.6717L33.6439 11.2289C32.4172 8.22478 20.6804 12.9715 17.43 15.993C16.2795 17.0385 16.3904 17.9934 17.5617 18.9972C19.0795 20.2971 22.1462 21.8235 24.9704 22.9876C29.1079 24.6883 32.9405 24.9915 33.6093 23.6846L33.7271 23.7159C32.1062 28.0005 28.8911 31.4827 24.7625 33.4254C17.3364 30.2888 10.5549 24.3467 10.5549 17.5404C10.5549 10.734 17.3399 4.77107 24.7625 1.64496V1.65193ZM14.7652 34.8508C11.6257 33.5125 9.22079 26.2461 9.22079 17.5299C9.22079 8.81376 11.6465 1.55086 14.7652 0.209106C10.6534 0.848188 6.90463 2.9457 4.1966 6.12245C1.48857 9.29919 -4.09917e-07 13.3455 -4.09917e-07 17.5299C-4.09917e-07 21.7143 1.48857 25.7607 4.1966 28.9374C6.90463 32.1142 10.6534 34.2117 14.7652 34.8508Z" fill="url(#paint2_radial)"/>
<defs>
<linearGradient id="paint0_linear" x1="13.2683" y1="1.39403" x2="18.8081" y2="36.1793" gradientUnits="userSpaceOnUse">
<stop stop-color="#4B560B"/>
<stop offset="0.17" stop-color="#859D2A"/>
<stop offset="0.31" stop-color="#B1C63A"/>
<stop offset="0.62" stop-color="#B5BD38"/>
<stop offset="0.87" stop-color="#6E893F"/>
<stop offset="1" stop-color="#A9B65E"/>
</linearGradient>
<linearGradient id="paint1_linear" x1="24.7417" y1="13.5396" x2="29.4438" y2="27.9311" gradientUnits="userSpaceOnUse">
<stop stop-color="#4B560B"/>
<stop offset="0.17" stop-color="#859D2A"/>
<stop offset="0.41" stop-color="#E6FF55"/>
<stop offset="0.62" stop-color="#F0F881"/>
<stop offset="0.87" stop-color="#78AC1D"/>
<stop offset="1" stop-color="#D7EE51"/>
</linearGradient>
<radialGradient id="paint2_radial" cx="0" cy="0" r="1" gradientUnits="userSpaceOnUse" gradientTransform="translate(7.75152 4.38074) scale(37.1718 37.3844)">
<stop offset="0.00486134" stop-color="#FFFAD0"/>
<stop offset="0.244792" stop-color="#D0DE32"/>
<stop offset="0.38" stop-color="#D4DF32"/>
<stop offset="0.619792" stop-color="#BFD734"/>
<stop offset="0.75" stop-color="#BFD734"/>
<stop offset="0.89" stop-color="#D2FF01"/>
<stop offset="1" stop-color="#BFD734"/>
</radialGradient>
</defs>
</svg>
