<svg width="39" height="40" viewBox="0 0 39 40" fill="none" xmlns="http://www.w3.org/2000/svg">
<path fill-rule="evenodd" clip-rule="evenodd" d="M18.0253 0C22.1653 0 25.5311 8.98292 25.5311 20C25.5311 31.0171 22.1495 40 18.0253 40C13.9011 40 10.5196 31.0171 10.5196 20C10.5196 8.98292 13.9011 0 18.0253 0Z" fill="url(#paint0_linear)"/>
<path fill-rule="evenodd" clip-rule="evenodd" d="M28.6441 12.9203C33.4438 10.9338 37.73 11.2318 38.3541 12.813C38.9783 14.3943 35.5889 17.3065 30.8049 19.281C30.2835 19.4996 29.762 19.6783 29.2485 19.869C29.762 20.0478 30.2835 20.2425 30.8287 20.461C35.6284 22.4475 39.0178 25.3438 38.3739 26.929C37.73 28.5142 33.2384 28.4348 28.4229 26.4602C23.6073 24.4856 18.7207 22.0582 18.7207 19.8651C18.7207 17.672 23.8483 14.8949 28.6441 12.9203Z" fill="url(#paint1_linear)"/>
<path fill-rule="evenodd" clip-rule="evenodd" d="M28.2292 1.88316C32.9144 4.09038 36.5683 8.03569 38.4252 12.8923H38.3857L38.3541 12.8009C36.9556 9.37621 23.5756 14.7874 19.8702 18.232C18.5586 19.4239 18.6851 20.5125 20.0203 21.6567C21.7506 23.1386 25.2467 24.8788 28.4662 26.2058C33.183 28.1446 37.5521 28.4902 38.3146 27.0004L38.4489 27.0361C36.601 31.9206 32.9359 35.8902 28.2292 38.1049C19.7635 34.5292 12.0326 27.7552 12.0326 19.996C12.0326 12.2368 19.7675 5.43898 28.2292 1.87521V1.88316ZM16.8323 39.7298C13.2533 38.2042 10.5117 29.9205 10.5117 19.9841C10.5117 10.0476 13.277 1.76794 16.8323 0.238342C12.1449 0.966895 7.87127 3.35806 4.78412 6.97955C1.69697 10.601 -4.67305e-07 15.2139 -4.67305e-07 19.9841C-4.67305e-07 24.7543 1.69697 29.3671 4.78412 32.9886C7.87127 36.6101 12.1449 39.0013 16.8323 39.7298Z" fill="url(#paint2_radial)"/>
<defs>
<linearGradient id="paint0_linear" x1="15.1257" y1="1.58919" x2="21.4412" y2="41.2443" gradientUnits="userSpaceOnUse">
<stop stop-color="#4B560B"/>
<stop offset="0.17" stop-color="#859D2A"/>
<stop offset="0.31" stop-color="#B1C63A"/>
<stop offset="0.62" stop-color="#B5BD38"/>
<stop offset="0.87" stop-color="#6E893F"/>
<stop offset="1" stop-color="#A9B65E"/>
</linearGradient>
<linearGradient id="paint1_linear" x1="28.2056" y1="15.4352" x2="33.566" y2="31.8415" gradientUnits="userSpaceOnUse">
<stop stop-color="#4B560B"/>
<stop offset="0.17" stop-color="#859D2A"/>
<stop offset="0.41" stop-color="#E6FF55"/>
<stop offset="0.62" stop-color="#F0F881"/>
<stop offset="0.87" stop-color="#78AC1D"/>
<stop offset="1" stop-color="#D7EE51"/>
</linearGradient>
<radialGradient id="paint2_radial" cx="0" cy="0" r="1" gradientUnits="userSpaceOnUse" gradientTransform="translate(8.83673 4.994) scale(42.3759 42.6182)">
<stop offset="0.00486134" stop-color="#FFFAD0"/>
<stop offset="0.244792" stop-color="#D0DE32"/>
<stop offset="0.38" stop-color="#D4DF32"/>
<stop offset="0.619792" stop-color="#BFD734"/>
<stop offset="0.75" stop-color="#BFD734"/>
<stop offset="0.89" stop-color="#D2FF01"/>
<stop offset="1" stop-color="#BFD734"/>
</radialGradient>
</defs>
</svg>
