<svg width="176" height="40" viewBox="0 0 176 40" fill="none" xmlns="http://www.w3.org/2000/svg">
<mask id="path-1-outside-1" maskUnits="userSpaceOnUse" x="49.5627" y="12.213" width="127" height="18" fill="black">
<rect fill="white" x="49.5627" y="12.213" width="127" height="18"/>
<path d="M50.5627 28.833V13.433H52.2911V22.629L61.0861 13.433H63.3176L56.7542 20.165L63.6021 28.833H61.4361L55.5509 21.375L52.2911 24.697V28.833H50.5627Z"/>
<path d="M71.3247 29.053C68.9764 29.053 66.8907 28.2317 65.0675 26.589L66.1396 25.313C66.9563 26.061 67.7731 26.611 68.5899 26.963C69.4213 27.315 70.3547 27.491 71.3903 27.491C72.4113 27.491 73.2353 27.249 73.8625 26.765C74.4897 26.2663 74.8033 25.621 74.8033 24.829C74.8033 24.081 74.5261 23.487 73.9719 23.047C73.4177 22.607 72.3675 22.2257 70.8215 21.903C68.9983 21.507 67.6856 20.9717 66.8834 20.297C66.0812 19.6223 65.6801 18.6617 65.6801 17.415C65.6801 16.1977 66.1541 15.193 67.1022 14.401C68.0502 13.609 69.2535 13.213 70.7121 13.213C72.7394 13.213 74.5334 13.8437 76.0941 15.105L75.0877 16.447C73.7312 15.3323 72.2581 14.775 70.6683 14.775C69.6911 14.775 68.9035 15.017 68.3055 15.501C67.7075 15.9703 67.4085 16.5717 67.4085 17.305C67.4085 18.0677 67.6929 18.669 68.2617 19.109C68.8451 19.549 69.9463 19.945 71.5653 20.297C73.301 20.6783 74.5626 21.2137 75.3502 21.903C76.1524 22.5777 76.5535 23.509 76.5535 24.697C76.5535 26.0023 76.0649 27.0583 75.0877 27.865C74.1105 28.657 72.8561 29.053 71.3247 29.053Z"/>
<path d="M80.0682 28.833V13.433H91.1385V15.017H81.7965V20.275H90.1539V21.859H81.7965V27.249H91.2478V28.833H80.0682Z"/>
<path d="M94.7247 28.833V13.433H96.3437L105.992 25.775V13.433H107.677V28.833H106.298L96.4094 16.205V28.833H94.7247Z"/>
<path d="M112.009 28.833V13.433H113.759L119.338 21.837L124.917 13.433H126.668V28.833H124.939V16.359L119.36 24.609H119.273L113.694 16.381V28.833H112.009Z"/>
<path d="M129.69 28.833L136.669 13.323H138.288L145.267 28.833H143.408L141.614 24.763H133.278L131.462 28.833H129.69ZM133.957 23.201H140.936L137.457 15.347L133.957 23.201Z"/>
<path d="M148.287 28.833V13.433H154.873C156.754 13.433 158.206 13.9463 159.226 14.973C160.014 15.765 160.408 16.7917 160.408 18.053C160.408 19.285 160.029 20.2823 159.27 21.045C158.512 21.8077 157.505 22.3063 156.251 22.541L160.955 28.833H158.833L154.391 22.849H150.016V28.833H148.287ZM150.016 21.287H154.72C155.886 21.287 156.834 21.001 157.564 20.429C158.293 19.857 158.658 19.0723 158.658 18.075C158.658 17.1217 158.308 16.381 157.608 15.853C156.922 15.3103 155.967 15.039 154.741 15.039H150.016V21.287Z"/>
<path d="M168.145 28.833V15.039H163.004V13.433H175.037V15.039H169.895V28.833H168.145Z"/>
</mask>
<path d="M50.5627 28.833V13.433H52.2911V22.629L61.0861 13.433H63.3176L56.7542 20.165L63.6021 28.833H61.4361L55.5509 21.375L52.2911 24.697V28.833H50.5627Z" fill="white"/>
<path d="M71.3247 29.053C68.9764 29.053 66.8907 28.2317 65.0675 26.589L66.1396 25.313C66.9563 26.061 67.7731 26.611 68.5899 26.963C69.4213 27.315 70.3547 27.491 71.3903 27.491C72.4113 27.491 73.2353 27.249 73.8625 26.765C74.4897 26.2663 74.8033 25.621 74.8033 24.829C74.8033 24.081 74.5261 23.487 73.9719 23.047C73.4177 22.607 72.3675 22.2257 70.8215 21.903C68.9983 21.507 67.6856 20.9717 66.8834 20.297C66.0812 19.6223 65.6801 18.6617 65.6801 17.415C65.6801 16.1977 66.1541 15.193 67.1022 14.401C68.0502 13.609 69.2535 13.213 70.7121 13.213C72.7394 13.213 74.5334 13.8437 76.0941 15.105L75.0877 16.447C73.7312 15.3323 72.2581 14.775 70.6683 14.775C69.6911 14.775 68.9035 15.017 68.3055 15.501C67.7075 15.9703 67.4085 16.5717 67.4085 17.305C67.4085 18.0677 67.6929 18.669 68.2617 19.109C68.8451 19.549 69.9463 19.945 71.5653 20.297C73.301 20.6783 74.5626 21.2137 75.3502 21.903C76.1524 22.5777 76.5535 23.509 76.5535 24.697C76.5535 26.0023 76.0649 27.0583 75.0877 27.865C74.1105 28.657 72.8561 29.053 71.3247 29.053Z" fill="white"/>
<path d="M80.0682 28.833V13.433H91.1385V15.017H81.7965V20.275H90.1539V21.859H81.7965V27.249H91.2478V28.833H80.0682Z" fill="white"/>
<path d="M94.7247 28.833V13.433H96.3437L105.992 25.775V13.433H107.677V28.833H106.298L96.4094 16.205V28.833H94.7247Z" fill="white"/>
<path d="M112.009 28.833V13.433H113.759L119.338 21.837L124.917 13.433H126.668V28.833H124.939V16.359L119.36 24.609H119.273L113.694 16.381V28.833H112.009Z" fill="white"/>
<path d="M129.69 28.833L136.669 13.323H138.288L145.267 28.833H143.408L141.614 24.763H133.278L131.462 28.833H129.69ZM133.957 23.201H140.936L137.457 15.347L133.957 23.201Z" fill="white"/>
<path d="M148.287 28.833V13.433H154.873C156.754 13.433 158.206 13.9463 159.226 14.973C160.014 15.765 160.408 16.7917 160.408 18.053C160.408 19.285 160.029 20.2823 159.27 21.045C158.512 21.8077 157.505 22.3063 156.251 22.541L160.955 28.833H158.833L154.391 22.849H150.016V28.833H148.287ZM150.016 21.287H154.72C155.886 21.287 156.834 21.001 157.564 20.429C158.293 19.857 158.658 19.0723 158.658 18.075C158.658 17.1217 158.308 16.381 157.608 15.853C156.922 15.3103 155.967 15.039 154.741 15.039H150.016V21.287Z" fill="white"/>
<path d="M168.145 28.833V15.039H163.004V13.433H175.037V15.039H169.895V28.833H168.145Z" fill="white"/>
<path d="M50.5627 28.833V13.433H52.2911V22.629L61.0861 13.433H63.3176L56.7542 20.165L63.6021 28.833H61.4361L55.5509 21.375L52.2911 24.697V28.833H50.5627Z" stroke="white" stroke-width="1.2" mask="url(#path-1-outside-1)"/>
<path d="M71.3247 29.053C68.9764 29.053 66.8907 28.2317 65.0675 26.589L66.1396 25.313C66.9563 26.061 67.7731 26.611 68.5899 26.963C69.4213 27.315 70.3547 27.491 71.3903 27.491C72.4113 27.491 73.2353 27.249 73.8625 26.765C74.4897 26.2663 74.8033 25.621 74.8033 24.829C74.8033 24.081 74.5261 23.487 73.9719 23.047C73.4177 22.607 72.3675 22.2257 70.8215 21.903C68.9983 21.507 67.6856 20.9717 66.8834 20.297C66.0812 19.6223 65.6801 18.6617 65.6801 17.415C65.6801 16.1977 66.1541 15.193 67.1022 14.401C68.0502 13.609 69.2535 13.213 70.7121 13.213C72.7394 13.213 74.5334 13.8437 76.0941 15.105L75.0877 16.447C73.7312 15.3323 72.2581 14.775 70.6683 14.775C69.6911 14.775 68.9035 15.017 68.3055 15.501C67.7075 15.9703 67.4085 16.5717 67.4085 17.305C67.4085 18.0677 67.6929 18.669 68.2617 19.109C68.8451 19.549 69.9463 19.945 71.5653 20.297C73.301 20.6783 74.5626 21.2137 75.3502 21.903C76.1524 22.5777 76.5535 23.509 76.5535 24.697C76.5535 26.0023 76.0649 27.0583 75.0877 27.865C74.1105 28.657 72.8561 29.053 71.3247 29.053Z" stroke="white" stroke-width="1.2" mask="url(#path-1-outside-1)"/>
<path d="M80.0682 28.833V13.433H91.1385V15.017H81.7965V20.275H90.1539V21.859H81.7965V27.249H91.2478V28.833H80.0682Z" stroke="white" stroke-width="1.2" mask="url(#path-1-outside-1)"/>
<path d="M94.7247 28.833V13.433H96.3437L105.992 25.775V13.433H107.677V28.833H106.298L96.4094 16.205V28.833H94.7247Z" stroke="white" stroke-width="1.2" mask="url(#path-1-outside-1)"/>
<path d="M112.009 28.833V13.433H113.759L119.338 21.837L124.917 13.433H126.668V28.833H124.939V16.359L119.36 24.609H119.273L113.694 16.381V28.833H112.009Z" stroke="white" stroke-width="1.2" mask="url(#path-1-outside-1)"/>
<path d="M129.69 28.833L136.669 13.323H138.288L145.267 28.833H143.408L141.614 24.763H133.278L131.462 28.833H129.69ZM133.957 23.201H140.936L137.457 15.347L133.957 23.201Z" stroke="white" stroke-width="1.2" mask="url(#path-1-outside-1)"/>
<path d="M148.287 28.833V13.433H154.873C156.754 13.433 158.206 13.9463 159.226 14.973C160.014 15.765 160.408 16.7917 160.408 18.053C160.408 19.285 160.029 20.2823 159.27 21.045C158.512 21.8077 157.505 22.3063 156.251 22.541L160.955 28.833H158.833L154.391 22.849H150.016V28.833H148.287ZM150.016 21.287H154.72C155.886 21.287 156.834 21.001 157.564 20.429C158.293 19.857 158.658 19.0723 158.658 18.075C158.658 17.1217 158.308 16.381 157.608 15.853C156.922 15.3103 155.967 15.039 154.741 15.039H150.016V21.287Z" stroke="white" stroke-width="1.2" mask="url(#path-1-outside-1)"/>
<path d="M168.145 28.833V15.039H163.004V13.433H175.037V15.039H169.895V28.833H168.145Z" stroke="white" stroke-width="1.2" mask="url(#path-1-outside-1)"/>
<path fill-rule="evenodd" clip-rule="evenodd" d="M18.0253 0C22.1653 0 25.531 8.98292 25.531 20C25.531 31.0171 22.1495 40 18.0253 40C13.9011 40 10.5195 31.0171 10.5195 20C10.5195 8.98292 13.9011 0 18.0253 0Z" fill="url(#paint0_linear)"/>
<path fill-rule="evenodd" clip-rule="evenodd" d="M28.6441 12.9203C33.4438 10.9338 37.73 11.2318 38.3541 12.8131C38.9783 14.3943 35.5889 17.3065 30.8049 19.2811C30.2835 19.4996 29.762 19.6784 29.2485 19.8691C29.762 20.0479 30.2835 20.2425 30.8287 20.461C35.6284 22.4475 39.0178 25.3438 38.3739 26.9291C37.73 28.5143 33.2384 28.4348 28.4229 26.4602C23.6073 24.4857 18.7207 22.0582 18.7207 19.8651C18.7207 17.672 23.8483 14.8949 28.6441 12.9203Z" fill="url(#paint1_linear)"/>
<path fill-rule="evenodd" clip-rule="evenodd" d="M28.2292 1.88322C32.9144 4.09045 36.5683 8.03575 38.4252 12.8924H38.3857L38.3541 12.801C36.9556 9.37627 23.5756 14.7875 19.8702 18.232C18.5586 19.4239 18.6851 20.5125 20.0203 21.6568C21.7506 23.1387 25.2467 24.8789 28.4662 26.2058C33.183 28.1446 37.5521 28.4903 38.3146 27.0004L38.4489 27.0362C36.601 31.9206 32.9359 35.8903 28.2292 38.1049C19.7635 34.5292 12.0326 27.7553 12.0326 19.9961C12.0326 12.2368 19.7675 5.43904 28.2292 1.87527V1.88322ZM16.8323 39.7299C13.2533 38.2042 10.5117 29.9206 10.5117 19.9841C10.5117 10.0477 13.277 1.768 16.8323 0.238403C12.1449 0.966956 7.87127 3.35812 4.78412 6.97961C1.69697 10.6011 -4.67305e-07 15.2139 -4.67305e-07 19.9841C-4.67305e-07 24.7544 1.69697 29.3672 4.78412 32.9887C7.87127 36.6102 12.1449 39.0013 16.8323 39.7299V39.7299Z" fill="url(#paint2_radial)"/>
<defs>
<linearGradient id="paint0_linear" x1="15.1257" y1="1.58919" x2="21.4411" y2="41.2443" gradientUnits="userSpaceOnUse">
<stop stop-color="#4B560B"/>
<stop offset="0.17" stop-color="#859D2A"/>
<stop offset="0.31" stop-color="#B1C63A"/>
<stop offset="0.62" stop-color="#B5BD38"/>
<stop offset="0.87" stop-color="#6E893F"/>
<stop offset="1" stop-color="#A9B65E"/>
</linearGradient>
<linearGradient id="paint1_linear" x1="28.2056" y1="15.4352" x2="33.566" y2="31.8416" gradientUnits="userSpaceOnUse">
<stop stop-color="#4B560B"/>
<stop offset="0.17" stop-color="#859D2A"/>
<stop offset="0.41" stop-color="#E6FF55"/>
<stop offset="0.62" stop-color="#F0F881"/>
<stop offset="0.87" stop-color="#78AC1D"/>
<stop offset="1" stop-color="#D7EE51"/>
</linearGradient>
<radialGradient id="paint2_radial" cx="0" cy="0" r="1" gradientUnits="userSpaceOnUse" gradientTransform="translate(8.83673 4.99407) scale(42.3759 42.6182)">
<stop offset="0.00486134" stop-color="#FFFAD0"/>
<stop offset="0.244792" stop-color="#D0DE32"/>
<stop offset="0.38" stop-color="#D4DF32"/>
<stop offset="0.619792" stop-color="#BFD734"/>
<stop offset="0.75" stop-color="#BFD734"/>
<stop offset="0.89" stop-color="#D2FF01"/>
<stop offset="1" stop-color="#BFD734"/>
</radialGradient>
</defs>
</svg>
