<svg width="16" height="16" viewBox="0 0 16 16" fill="none" xmlns="http://www.w3.org/2000/svg">
<path d="M14.4727 1.60742C14.8438 1.68555 15.0293 1.91016 15.0293 2.28125C15.0293 6.03125 13.7012 9.23438 11.0449 11.8906C8.38867 14.5469 5.18555 15.875 1.43555 15.875C1.06445 15.875 0.839844 15.6895 0.761719 15.3184L0.0585938 12.2715C-0.0390625 11.9004 0.0976562 11.6367 0.46875 11.4805L3.75 10.0742C4.0625 9.9375 4.33594 10.0059 4.57031 10.2793L6.00586 12.0371C7.1582 11.5098 8.17383 10.7969 9.05273 9.89844C9.95117 9 10.6641 7.98438 11.1914 6.85156L9.43359 5.38672C9.16016 5.17188 9.0918 4.89844 9.22852 4.56641L10.6348 1.28516C10.791 0.933594 11.0547 0.806641 11.4258 0.904297L14.4727 1.60742Z" fill="white"/>
</svg>
