<svg width="16" height="16" viewBox="0 0 16 16" fill="none" xmlns="http://www.w3.org/2000/svg">
<path d="M13.0664 0.992188C13.6133 0.757812 14.1113 0.875 14.5605 1.34375C15.0293 1.79297 15.1465 2.29102 14.9121 2.83789L9.31641 15.0254C9.16016 15.3574 8.92578 15.5918 8.61328 15.7285C8.30078 15.8652 7.99805 15.9043 7.70508 15.8457C7.41211 15.7871 7.14844 15.6309 6.91406 15.377C6.69922 15.123 6.5918 14.8203 6.5918 14.4688V9.3125H1.43555C0.947266 9.3125 0.566406 9.13672 0.292969 8.78516C0.0390625 8.41406 -0.0390625 8.01367 0.0585938 7.58398C0.15625 7.13477 0.429688 6.80273 0.878906 6.58789L13.0664 0.992188Z" fill="#4EB7F0"/>
</svg>
