<svg width="18" height="16" viewBox="0 0 18 16" fill="none" xmlns="http://www.w3.org/2000/svg">
<path d="M14.5645 2.7207C15.4824 3.50195 15.9707 4.49805 16.0293 5.70898C16.0879 6.91992 15.6973 7.94531 14.8574 8.78516L9.20312 14.6445C9.00781 14.8398 8.7832 14.9375 8.5293 14.9375C8.27539 14.9375 8.05078 14.8398 7.85547 14.6445L2.20117 8.78516C1.36133 7.94531 0.970703 6.91992 1.0293 5.70898C1.08789 4.49805 1.57617 3.50195 2.49414 2.7207C3.29492 2.03711 4.21289 1.74414 5.24805 1.8418C6.30273 1.91992 7.20117 2.33984 7.94336 3.10156L8.5293 3.6875L9.11523 3.10156C9.85742 2.33984 10.7461 1.91992 11.7812 1.8418C12.8359 1.74414 13.7637 2.03711 14.5645 2.7207Z" fill="#FC7B54"/>
<path d="M14.5645 2.7207L13.9152 3.48127L13.9163 3.48224L14.5645 2.7207ZM14.8574 8.78516L14.1503 8.07805L14.144 8.08435L14.1378 8.09075L14.8574 8.78516ZM9.20312 14.6445L9.91023 15.3516L9.91653 15.3453L9.92271 15.3389L9.20312 14.6445ZM7.85547 14.6445L7.13588 15.3389L7.14207 15.3453L7.14836 15.3516L7.85547 14.6445ZM2.20117 8.78516L2.92076 8.09075L2.91458 8.08435L2.90828 8.07805L2.20117 8.78516ZM2.49414 2.7207L3.14226 3.48224L3.1434 3.48127L2.49414 2.7207ZM5.24805 1.8418L5.15412 2.83738L5.16414 2.83832L5.17418 2.83906L5.24805 1.8418ZM7.94336 3.10156L7.22707 3.79949L7.23625 3.80867L7.94336 3.10156ZM8.5293 3.6875L7.82219 4.39461L8.5293 5.10171L9.2364 4.39461L8.5293 3.6875ZM9.11523 3.10156L9.8224 3.80873L9.83146 3.79943L9.11523 3.10156ZM11.7812 1.8418L11.8565 2.83896L11.865 2.83832L11.8734 2.83754L11.7812 1.8418ZM13.9163 3.48224C14.6225 4.08325 14.9851 4.82055 15.0305 5.75731L17.0281 5.66065C16.9563 4.17555 16.3423 2.92066 15.2126 1.95916L13.9163 3.48224ZM15.0305 5.75731C15.0758 6.69322 14.7861 7.44228 14.1503 8.07805L15.5645 9.49226C16.6084 8.44834 17.1 7.14662 17.0281 5.66065L15.0305 5.75731ZM14.1378 8.09075L8.48354 13.9501L9.92271 15.3389L15.577 9.47956L14.1378 8.09075ZM8.49602 13.9374C8.48552 13.9479 8.47964 13.9521 8.47897 13.9526C8.47848 13.9529 8.48203 13.9504 8.48946 13.9472C8.497 13.9439 8.50562 13.9412 8.51427 13.9394C8.52283 13.9376 8.52828 13.9375 8.5293 13.9375V15.9375C9.07304 15.9375 9.54554 15.7163 9.91023 15.3516L8.49602 13.9374ZM8.5293 13.9375C8.53032 13.9375 8.53577 13.9376 8.54432 13.9394C8.55297 13.9412 8.56159 13.9439 8.56914 13.9472C8.57656 13.9504 8.58012 13.9529 8.57963 13.9526C8.57896 13.9521 8.57307 13.9479 8.56258 13.9374L7.14836 15.3516C7.51305 15.7163 7.98555 15.9375 8.5293 15.9375V13.9375ZM8.57506 13.9501L2.92076 8.09075L1.48158 9.47956L7.13588 15.3389L8.57506 13.9501ZM2.90828 8.07805C2.27251 7.44228 1.98284 6.69322 2.02813 5.75731L0.0304655 5.66065C-0.0414361 7.14662 0.450146 8.44834 1.49407 9.49226L2.90828 8.07805ZM2.02813 5.75731C2.07346 4.82055 2.43608 4.08325 3.14226 3.48224L1.84602 1.95916C0.716265 2.92066 0.102326 4.17555 0.0304655 5.66065L2.02813 5.75731ZM3.1434 3.48127C3.74137 2.97081 4.3921 2.76549 5.15412 2.83738L5.34197 0.846217C4.03368 0.722794 2.84847 1.10341 1.84488 1.96014L3.1434 3.48127ZM5.17418 2.83906C5.98387 2.89904 6.65427 3.2115 7.22713 3.79943L8.65959 2.4037C7.74807 1.46819 6.6216 0.940802 5.32192 0.844529L5.17418 2.83906ZM7.23625 3.80867L7.82219 4.39461L9.2364 2.98039L8.65047 2.39446L7.23625 3.80867ZM9.2364 4.39461L9.82234 3.80867L8.40813 2.39446L7.82219 2.98039L9.2364 4.39461ZM9.83146 3.79943C10.4082 3.20754 11.0708 2.89826 11.8565 2.83896L11.706 0.844633C10.4214 0.941584 9.30667 1.47215 8.399 2.4037L9.83146 3.79943ZM11.8734 2.83754C12.6612 2.7646 13.3211 2.9741 13.9152 3.48127L15.2137 1.96014C14.2063 1.10011 13.0107 0.723683 11.6891 0.846056L11.8734 2.83754Z" fill="#FC7B54"/>
</svg>
