<?xml version="1.0"?>
<svg xmlns="http://www.w3.org/2000/svg" viewBox="0 0 64 64" width="512" height="512"><g id="Setting-2" data-name="Setting"><path d="M57,2H7A5.006,5.006,0,0,0,2,7V43a5.006,5.006,0,0,0,5,5H26v8H20a3,3,0,0,0,0,6H44a3,3,0,0,0,0-6H38V48H57a5.006,5.006,0,0,0,5-5V7A5.006,5.006,0,0,0,57,2ZM7,4H57a3,3,0,0,1,3,3V38H4V7A3,3,0,0,1,7,4ZM45,59a1,1,0,0,1-1,1H20a1,1,0,0,1,0-2H44A1,1,0,0,1,45,59Zm-9-3H28V48h8ZM57,46H7a3,3,0,0,1-3-3V40H60v3A3,3,0,0,1,57,46Z"/><rect x="54" y="42" width="2" height="2"/><rect x="50" y="42" width="2" height="2"/><path d="M10,28a3,3,0,1,0,2.816,4h8.971l1.728,1.728a1,1,0,0,0,1.414,0l2.655-2.656c.139.061.277.119.416.175V35a1,1,0,0,0,1,1h6a1,1,0,0,0,1-1V31.247c.139-.056.277-.114.416-.175l2.655,2.656a1,1,0,0,0,1.414,0L42.213,32h8.971a3,3,0,1,0,0-2H44.213l.515-.515a1,1,0,0,0,0-1.414l-2.656-2.655c.061-.139.119-.277.175-.416H46a1,1,0,0,0,1-1V22h4.184a3,3,0,1,0,0-2H47V18a1,1,0,0,0-1-1H42.247c-.056-.139-.114-.277-.175-.416l2.656-2.655a1,1,0,0,0,0-1.414L44.213,12h6.971a3,3,0,1,0,0-2H42.213L40.485,8.272a1,1,0,0,0-1.414,0l-2.655,2.656c-.139-.061-.277-.119-.416-.175V7a1,1,0,0,0-1-1H29a1,1,0,0,0-1,1v3.753c-.139.056-.277.114-.416.175L24.929,8.272a1,1,0,0,0-1.414,0L21.787,10H12.816a3,3,0,1,0,0,2h6.971l-.515.515a1,1,0,0,0,0,1.414l2.656,2.655c-.061.139-.119.277-.175.416H18a1,1,0,0,0-1,1v2H12.816a3,3,0,1,0,0,2H17v2a1,1,0,0,0,1,1h3.753c.056.139.114.277.175.416l-2.656,2.655a1,1,0,0,0,0,1.414l.515.515H12.816A3,3,0,0,0,10,28Zm44,2a1,1,0,1,1-1,1A1,1,0,0,1,54,30Zm0-10a1,1,0,1,1-1,1A1,1,0,0,1,54,20Zm0-10a1,1,0,1,1-1,1A1,1,0,0,1,54,10ZM10,12a1,1,0,1,1,1-1A1,1,0,0,1,10,12Zm0,10a1,1,0,1,1,1-1A1,1,0,0,1,10,22Zm13.844,4.328a1,1,0,0,0,.179-1.171,8.934,8.934,0,0,1-.61-1.457,1,1,0,0,0-.954-.7H19V19h3.459a1,1,0,0,0,.954-.7,8.934,8.934,0,0,1,.61-1.457,1,1,0,0,0-.179-1.171l-2.451-2.45,2.829-2.829,2.45,2.451a1,1,0,0,0,1.171.179,8.934,8.934,0,0,1,1.457-.61,1,1,0,0,0,.7-.954V8h4v3.459a1,1,0,0,0,.7.954,8.934,8.934,0,0,1,1.457.61,1,1,0,0,0,1.171-.179l2.45-2.451,2.829,2.829-2.451,2.45a1,1,0,0,0-.179,1.171,8.934,8.934,0,0,1,.61,1.457,1,1,0,0,0,.954.7H45v4H41.541a1,1,0,0,0-.954.7,8.934,8.934,0,0,1-.61,1.457,1,1,0,0,0,.179,1.171l2.451,2.45-2.829,2.829-2.45-2.451a1,1,0,0,0-1.171-.179,8.934,8.934,0,0,1-1.457.61,1,1,0,0,0-.7.954V34H30V30.541a1,1,0,0,0-.7-.954,8.934,8.934,0,0,1-1.457-.61,1,1,0,0,0-1.171.179l-2.45,2.451-2.829-2.829ZM10,32a1,1,0,1,1,1-1A1,1,0,0,1,10,32Z"/><path d="M28,22a3,3,0,1,0-3-3A3,3,0,0,0,28,22Zm0-4a1,1,0,1,1-1,1A1,1,0,0,1,28,18Z"/><path d="M36,22a3,3,0,1,0-3-3A3,3,0,0,0,36,22Zm0-4a1,1,0,1,1-1,1A1,1,0,0,1,36,18Z"/><rect x="29" y="24" width="6" height="2"/></g></svg>
