<svg xmlns="http://www.w3.org/2000/svg" xmlns:xlink="http://www.w3.org/1999/xlink" width="0" height="0" style="position:absolute">
	
		<symbol id="icon-basket" viewBox="0 0 18 14">
			<path d="M17.583 5.803v.469a.678.678 0 0 1-.205.498.678.678 0 0 1-.498.205h-.235l-.762 5.361c-.039.215-.126.41-.263.586a1.093 1.093 0 0 1-.498.44 1.23 1.23 0 0 1-.645.175H3.813a1.4 1.4 0 0 1-.937-.351 1.368 1.368 0 0 1-.47-.85l-.76-5.361H1.41a.678.678 0 0 1-.498-.205.678.678 0 0 1-.205-.498v-.469c0-.195.068-.361.205-.498A.678.678 0 0 1 1.41 5.1h1.963L6.508.793a.906.906 0 0 1 .616-.38c.254-.04.488.019.703.175a.906.906 0 0 1 .38.616.917.917 0 0 1-.175.703L5.688 5.1h6.914l-2.344-3.193a.918.918 0 0 1-.175-.703.907.907 0 0 1 .38-.616.917.917 0 0 1 .704-.175c.254.039.459.166.615.38L14.917 5.1h1.963c.195 0 .36.068.498.205a.678.678 0 0 1 .205.498zM9.848 10.96V7.68a.678.678 0 0 0-.205-.499.678.678 0 0 0-.498-.205.678.678 0 0 0-.498.205.678.678 0 0 0-.205.498v3.281c0 .196.068.362.205.498a.678.678 0 0 0 .498.205.678.678 0 0 0 .498-.205.678.678 0 0 0 .205-.498zm3.281 0V7.68a.678.678 0 0 0-.205-.499.678.678 0 0 0-.498-.205.678.678 0 0 0-.498.205.678.678 0 0 0-.205.498v3.281c0 .196.069.362.205.498a.678.678 0 0 0 .498.205.678.678 0 0 0 .498-.205.678.678 0 0 0 .206-.498zm-6.562 0V7.68a.678.678 0 0 0-.205-.499.678.678 0 0 0-.498-.205.678.678 0 0 0-.498.205.678.678 0 0 0-.205.498v3.281c0 .196.068.362.205.498a.678.678 0 0 0 .498.205.678.678 0 0 0 .498-.205.678.678 0 0 0 .205-.498z" fill="#4EB7F0"></path>
		</symbol>
	
		<symbol id="icon-catalog" viewBox="0 0 459 459">
			<path d="M0 382.5h459v-51H0v51zM0 255h459v-51H0v51zM0 76.5v51h459v-51H0z"></path>
		</symbol>
	
		<symbol id="icon-facebook-logo" viewBox="0 0 512 512">
			<path d="M437 0H75C33.648 0 0 33.648 0 75v362c0 41.352 33.648 75 75 75h151V331h-60v-90h60v-61c0-49.629 40.371-90 90-90h91v90h-91v61h91l-15 90h-76v181h121c41.352 0 75-33.648 75-75V75c0-41.352-33.648-75-75-75zm0 0"></path>
		</symbol>
	
		<symbol id="icon-features-rocket" viewBox="0 0 63 63">
			<g clip-path="url(#a)"><path d="M62.708 13.19c-1.007 7.466-3.641 14.284-8.15 20.345-3.865 5.195-8.665 9.313-14.419 12.287-.813.421-1.118.892-1.092 1.815.07 2.38.032 4.76.023 7.142-.018 4.804-3.428 8.21-8.216 8.217-.648.002-1.293.004-1.941 0-1.209-.007-1.844-.453-2.227-1.6a2433.48 2433.48 0 0 1-3.664-11.018 3.06 3.06 0 0 0-.775-1.25c-2.807-2.8-5.619-5.593-8.401-8.417-.528-.534-1.174-.76-1.833-.982-3.416-1.152-6.835-2.285-10.255-3.428-1.277-.427-1.767-1.08-1.755-2.4.016-1.638-.138-3.278.501-4.87 1.233-3.076 4.017-5.053 7.355-5.087 2.587-.024 5.177-.038 7.763.014.759.016 1.172-.241 1.507-.892 3.575-6.922 8.728-12.4 15.295-16.552 4.38-2.77 9.132-4.646 14.213-5.684.856-.344 1.802-.22 2.67-.502 2.657-.231 5.316-.447 7.987-.256 1.17.083 2.344.116 3.504.273 1.067.145 1.706.835 1.909 1.904.354 3.65.425 7.296.001 10.942z" fill="#16405D"></path><path d="M4.135 59.731c-.774-.563-1.104-1.325-1.083-2.277.053-2.408.037-4.82.134-7.226.168-4.142 4.02-7.56 8.157-7.352 1.66.083 3.07.56 4.19 1.875.834.983 1.77 1.891 2.734 2.745 1.775 1.572 2.054 3.583 1.664 5.717-.598 3.269-2.625 5.343-5.75 6.38-.855.387-1.785.3-2.67.316-1.926.036-3.849.16-5.775.122-.558-.012-1.09-.07-1.6-.3z" fill="#16405D"></path><path d="M39.937 7.368l1.762-.71c.33-.183.715-.202 1.057-.35 1.507-.501 3.04-.9 4.587-1.247.503-.126.995-.307 1.528-.246 1.576-.097 3.14-.305 4.721-.379 1.11-.051 2.199-.164 3.317-.003.65.093.865.349.895.933.07 1.356-.078 2.708-.256 4.038-1.023 7.643-4.139 14.362-9.24 20.125-3.877 4.382-8.465 7.868-13.782 10.367-3.418 1.607-6.938 2.885-10.659 3.59-.704.134-1.22-.003-1.732-.534a187.452 187.452 0 0 0-4.737-4.738c-.498-.48-.586-.992-.413-1.586.254-.87.367-1.764.53-2.648.409-2.124 1.16-4.137 1.963-6.135.151-.283.185-.614.361-.888 2.158-4.523 4.969-8.578 8.616-12.036 3.14-2.977 6.71-5.32 10.603-7.186.274-.171.605-.2.879-.367z" fill="#DEDEDE"></path><path d="M17.514 33.974c.104.93-.217 1.794-.432 2.67-.148.603-.04 1.047.42 1.495a239.486 239.486 0 0 1 4.737 4.735c.42.432.84.529 1.417.42 5.767-1.096 11.102-3.306 15.968-6.527 5.362-3.55 9.785-8.055 13.025-13.678a37.31 37.31 0 0 0 4.148-10.681c.5-2.283.77-4.603.793-6.949.007-.688-.236-.877-.915-.937-2.23-.194-4.423.073-6.622.357-.375.05-.762.005-1.143.003-.053-.07-.033-.116.05-.14a.403.403 0 0 0 .151-.019c.268-.208.621.027.893-.167 2.373-.125 4.735-.448 7.122-.245 1.463.125 1.456.086 1.525 1.6.376 8.215-1.516 15.85-5.948 22.796-4.15 6.508-9.751 11.36-16.833 14.498-2.671 1.184-5.43 2.041-8.282 2.636-.82.153-1.626.511-2.48.171-2.597-2.583-5.186-5.172-7.802-7.737-.425-.418-.6-.838-.457-1.404.243-.96.277-1.969.665-2.897z" fill="#B5B5B5"></path><path d="M34.847 52.255c-.07 1.04.14 2.31-.117 3.555-.383 1.85-1.905 3.03-3.79 3.002-.44-.007-.686-.145-.832-.591a568.886 568.886 0 0 0-2.468-7.405c-.156-.457-.13-.674.421-.784 2.038-.405 4.062-.89 6.022-1.589.697-.249.794-.005.773.605-.032.997-.01 1.995-.01 3.207zM11.043 28.17c1.027 0 2.053.014 3.08-.006.531-.01.653.13.47.669a45.685 45.685 0 0 0-1.638 6.192c-.076.393-.238.493-.598.372-2.525-.847-5.048-1.694-7.576-2.53-.413-.136-.503-.413-.513-.806-.057-2.133 1.505-3.802 3.696-3.883 1.025-.038 2.054-.007 3.08-.007l-.001-.002z" fill="#fff"></path><path d="M25.111 46.012c.845.196 1.648-.196 2.48-.17-.807.324-1.612.701-2.48.17z" fill="#696977"></path><path d="M48.96 4.743c-.015.048-.03.096-.048.142l-1.567.176c.489-.362 1.043-.381 1.614-.318z" fill="#676875"></path><path d="M42.758 6.306c-.31.244-.662.364-1.057.351.28-.33.654-.379 1.057-.35z" fill="#6E6D7D"></path><path d="M39.937 7.368c-.242.245-.531.377-.88.363.224-.293.527-.39.88-.363zM19.84 26.952a1.22 1.22 0 0 1-.362.888c-.036-.358.058-.665.361-.888z" fill="#696977"></path><path d="M50.006 4.556c-.265.233-.584.173-.893.167.252-.289.584-.169.893-.167z" fill="#676875"></path><path d="M10.194 55.7c-.706 0-1.411-.02-2.115.007-.516.021-.763-.146-.743-.698.056-1.556.021-3.117.144-4.668.143-1.811 1.774-3.226 3.593-3.239.605-.003 1.132.154 1.575.634.738.797 1.528 1.545 2.297 2.314 1.44 1.44 1.281 3.495-.365 4.747-.75.57-1.586.879-2.535.868-.618-.007-1.235-.002-1.851-.002v.037z" fill="#FC7B54"></path><path d="M37.629 18.958c-.206-3.684 3.255-6.513 6.39-6.548 3.529-.04 6.701 2.908 6.682 6.583-.018 3.531-3.033 6.546-6.593 6.53-3.628-.016-6.671-3.103-6.479-6.565z" fill="#fff"></path></g><defs><clipPath id="a"><path fill="#fff" d="M0 0h63v63H0z"></path></clipPath></defs>
		</symbol>
	
		<symbol id="icon-features-settings" viewBox="0 0 69 65">
			<path d="M19.982 55.722c-.961.939-1.925 1.875-2.883 2.816-1.152 1.133-2.125 1.143-3.269.01a3568.971 3568.971 0 0 1-7.947-7.893c-1.215-1.213-1.205-2.156.012-3.373 1.3-1.302 2.586-2.617 3.911-3.894.413-.397.543-.741.289-1.28-1.113-2.35-1.756-4.835-2.01-7.417-.059-.608-.316-.898-.926-1.044-1.915-.465-3.82-.984-5.721-1.505a1.954 1.954 0 0 1-1.374-2.384c.907-3.497 1.852-6.985 2.781-10.477.05-.184.1-.37.142-.557.382-1.65 1.403-2.22 3.063-1.76 1.82.505 3.658.946 5.474 1.46.477.136.696-.021.943-.38 1.525-2.215 3.417-4.074 5.613-5.614.415-.292.5-.565.372-1.028-.526-1.899-1.027-3.805-1.533-5.71-.331-1.246.284-2.325 1.537-2.66 3.65-.977 7.3-1.944 10.95-2.916 1.477-.394 2.537.223 2.911 1.729.099.398.168.8.358 1.17.287.217.336.545.418.865.269 1.033.536 2.066.811 3.096.129.483.383.735.905.78.599.05 1.187.213 1.782.283 1.019.117 1.924.556 2.864.904 1.008.41 2.019.817 3.026 1.233.392.161.613-.086.849-.322 1.337-1.338 2.672-2.677 4.015-4.01 1.027-1.02 1.75-1.104 2.994-.368.11.083.227.155.323.254 2.502 2.57 5.285 4.853 7.733 7.48.168.18.346.352.507.538.963 1.119.988 2.134-.01 3.228-1.181 1.299-2.464 2.5-3.704 3.744-.86.863-.862.861-.413 1.957.834 2.04 1.452 4.141 1.694 6.336.098.88.386 1.409 1.378 1.611 1.195.244 2.422.482 3.523 1.073.79.429 1.77.361 2.49.966.853.55.83 1.397.634 2.205-.726 3.005-1.543 5.99-2.362 8.972-.155.566-.477 1.087-.612 1.669-.058.12-.132.237-.173.364-.473 1.437-1.449 1.958-2.896 1.534-.597-.175-1.182-.404-1.815-.427-1.223-.272-2.47-.436-3.673-.796-.397-.118-.684.028-.916.36-1.499 2.129-3.33 3.93-5.437 5.455-.42.303-.49.673-.35 1.154.418 1.45.774 2.916 1.158 4.376.07.265.135.532.196.8.38 1.672.018 2.36-1.567 3.003-1.72.435-3.442.857-5.157 1.307-2.008.527-4.004 1.097-6.015 1.618-1.36.353-2.334-.328-2.708-1.788-.468-1.824-.984-3.638-1.442-5.465-.113-.45-.297-.61-.764-.65-1.692-.14-3.331-.591-4.981-.97-.94-.26-1.902-.45-2.783-.895-.415-.21-.723-.034-1.017.264-.359.37-.69.78-1.198.969z" fill="#16405D"></path><path d="M61.371 31.697c-1.483-.37-2.968-.74-4.452-1.117-.32-.081-.496-.27-.532-.633-.276-2.775-.973-5.44-2.15-7.969-.206-.443.033-.652.292-.91 1.34-1.332 2.682-2.665 4.01-4.012 1.204-1.219 1.206-2.173-.006-3.39-2.725-2.738-5.463-5.461-8.194-8.19.356-.01.516.282.725.486.783.77 1.568 1.54 2.33 2.33.34.354.632.397.954.008.018-.021.038-.04.057-.057.417-.396.825-1.096 1.253-1.11.567-.018.936.744 1.377 1.18 2.108 2.085 4.2 4.187 6.297 6.283.746.747.756.757-.015 1.538a303.371 303.371 0 0 1-4.492 4.477c-.41.398-.528.7-.236 1.249 1.23 2.313 1.914 4.818 2.423 7.37.084.424.053.877.032 1.313-.02.432.07.811.328 1.154zM46.046 61.334c1.647-1.032 1.798-1.457 1.266-3.4-.448-1.64-.859-3.289-1.325-4.922-.155-.542-.004-.85.445-1.165a21.956 21.956 0 0 0 5.494-5.51c.297-.428.575-.537 1.091-.375 1.195.372 2.446.558 3.618 1.018-.82-.285-1.211.198-1.742.756-1.184 1.246-2.492 2.4-4.006 3.235-.66.364-.656.797-.509 1.336a377.528 377.528 0 0 0 1.728 6.146c.184.638.19 1.042-.638 1.183-1.017.173-2.008.496-3.01.758-.557.145-1.108.292-1.576.664-.233.187-.508.338-.836.276zM61.521 45.508c.322-1.8.915-3.533 1.359-5.302.436-1.747.908-3.485 1.388-5.222.235-.85.143-1.62-.406-2.322 1.423.633 2.962.882 4.45 1.292.74.204.774.506.602 1.125-.79 2.858-1.552 5.723-2.322 8.588-.106.394-.206.791-.285 1.192-.137.698-.558.771-1.148.577-.723-.24-1.48-.393-2.179-.686-.854-.362-1.183.102-1.459.758zM39.454 8.945c-1.386-.28-2.735-.828-4.154-.844-1.207-.013-1.596-.62-1.787-1.673-.208-1.15-.554-2.275-.84-3.41 1.072-.292 2.162-.536 3.214-.889.736-.247 1.061-.023 1.233.683.397 1.636.883 3.252 1.21 4.902.143.721.61.949 1.124 1.23zM19.982 55.721c.023-.048.04-.1.07-.143.94-1.328 2.048-1.782 3.513-.747.409.289 1.007.2 1.416.556-.786-.31-1.183.257-1.638.715-1.252 1.259-1.258 1.26-2.512.04-.246-.238-.483-.447-.85-.42z" fill="#DEDEDE"></path><path d="M35.355 59.335c-.478-1.826-.923-3.662-1.444-5.474-.267-.93-1.035-1.346-1.954-1.363-3.471-.064-6.702-.969-9.742-2.631-.872-.476-1.676-.318-2.405.385-1.3 1.26-2.6 2.521-3.865 3.817-.434.443-.71.522-1.184.028a170.84 170.84 0 0 0-4.536-4.542c-.424-.41-.4-.657.005-1.048 1.224-1.18 2.418-2.392 3.616-3.597 1.012-1.018 1.126-1.598.477-2.859-1.545-2.995-2.414-6.164-2.476-9.538-.015-.77-.285-1.383-.902-1.841-.242-.208-.557-.213-.842-.302-1.723-.451-3.442-.92-5.171-1.34-.47-.115-.567-.306-.447-.747a505.904 505.904 0 0 0 1.724-6.43c.134-.512.383-.646.887-.504 1.637.456 3.285.875 4.924 1.326 1.345.371 2.11.11 2.863-1.092 1.752-2.788 3.991-5.077 6.826-6.78 1.044-.627 1.33-1.377 1.03-2.594-.425-1.729-.87-3.454-1.348-5.17-.132-.474-.077-.698.429-.83a284.695 284.695 0 0 0 6.506-1.761c.559-.16.761-.068.901.512.42 1.73.884 3.45 1.375 5.163.323 1.125.899 1.582 2.085 1.63 3.43.143 6.658.966 9.67 2.636.936.519 1.688.379 2.473-.386a174.352 174.352 0 0 0 3.784-3.786c.396-.41.652-.435 1.06-.015a206.864 206.864 0 0 0 4.54 4.543c.437.421.48.669.018 1.109-1.253 1.19-2.46 2.43-3.672 3.66-.929.943-1.056 1.499-.46 2.654 1.607 3.124 2.508 6.418 2.551 9.942.01.885.56 1.52 1.46 1.769 1.768.489 3.54.973 5.325 1.407.57.138.69.344.532.901-.542 1.897-1.035 3.806-1.547 5.711-.163.364-.073.81-.356 1.137-1.14-.026-2.176-.509-3.27-.741-.802-.172-1.587-.422-2.378-.641-1.295-.358-2.078-.075-2.797 1.072-1.747 2.787-3.978 5.08-6.803 6.79-1.108.668-1.381 1.345-1.067 2.634.42 1.728.86 3.452 1.354 5.16.163.568-.028.716-.516.844-2.09.552-4.174 1.134-6.26 1.704-.545.233-.853.03-.973-.522z" fill="#F3F3F3"></path><path d="M35.355 59.334c.183.435.512.6.972.524-.771.38-.868.327-.972-.523z" fill="#6E737A"></path><path d="M58.061 43.035c.06-.397.15-.786.356-1.137.02.422.066.852-.356 1.137z" fill="#757A81"></path><path d="M10.103 30.368c.333-.046.658-.069.842.302-.297-.056-.59-.124-.842-.302z" fill="#B9BBBF"></path><path d="M32.162 44.552c-6.816-.025-12.345-5.58-12.322-12.38.023-6.86 5.633-12.384 12.553-12.36 6.687.025 12.26 5.682 12.232 12.42-.031 6.868-5.571 12.345-12.463 12.32z" fill="#16405D"></path><path d="M35.008 24.259c2.69.913 4.454 2.785 5.23 5.456 1.36 4.673-1.186 9.138-5.874 10.54-.508.107-1.029.094-1.541.15-.404.045-.737-.097-1.05-.364-3.79-3.225-4.695-9.18-2.028-13.395.264-.416.546-.822.847-1.212 1.517-1.97 2.023-1.732 4.11-1.282.105.021.217.036.306.107z" fill="#fff"></path><path d="M35.009 24.258c-.376-.054-.776-.043-1.123-.174-1.24-.475-2.05.164-2.764 1.024-1.747 2.103-2.824 4.477-2.7 7.262.135 3.039 1.34 5.6 3.625 7.636.227.203.473.245.756.242.521-.005 1.042.002 1.563.005-5.746 1.684-11.58-3.554-10.487-9.419.6-3.226 2.382-5.467 5.5-6.592.7-.27 1.438-.348 2.17-.46 1.182-.058 2.37-.148 3.46.476z" fill="#FC7B54"></path><path d="M31.547 23.784c-.7.267-1.436.36-2.17.46.666-.424 1.396-.544 2.17-.46z" fill="#9FA9B6"></path>
		</symbol>
	
		<symbol id="icon-features-support" viewBox="0 0 61 69">
			<path d="M23.237 59.647c-1.218-.917-2.526-1.715-3.636-2.774-1.932-1.846-3.547-3.93-4.962-6.168-.603-.954-.426-1.742.527-2.601.824-.73 1.985-.55 2.711.458.849 1.176 1.614 2.41 2.562 3.516 1.572 1.834 3.324 3.438 5.547 4.53 2.953 1.45 5.88 1.503 8.864.106 2.992-1.4 5.132-3.694 7.03-6.255 1.325-1.787 2.374-3.73 3.347-5.714.158-.322.286-.65.344-1.002.466-2.767.883-5.54 1.341-8.307.117-.7.011-.78-.66-.71-2.291.241-4.54-.085-6.765-.554-3.387-.716-6.527-2.082-9.616-3.578-2.385-1.155-4.722-2.412-7.178-3.426-1.095-.451-2.204-.882-3.391-1.055-1.689-.247-3.186.078-4.372 1.375-.293.322-.562.66-.836.995-.666.81-.882 1.649-.672 2.736.765 3.971 1.48 7.952 2.17 11.937.078.452.128.903.058 1.357-.135.871-.712 1.41-1.566 1.482-1.654.264-3.308.516-4.96.794-3.443.581-6.362-1.437-6.976-4.843-.69-3.82-1.382-7.64-2.058-11.463-.495-2.8 1.092-5.487 3.827-6.41.53-.179.67-.415.724-.94.7-6.858 3.666-12.595 9.03-17.1C17.53 2.789 22.02.843 27.065.229c8.023-.978 15.108 1.179 21.066 6.506 4.77 4.264 7.519 9.61 8.178 15.93.076.724.227 1.2 1.065 1.541 2.748 1.12 4.047 3.76 3.502 6.61-.723 3.789-1.395 7.588-2.089 11.382-.586 3.203-3.654 5.252-6.924 4.638-.836-.157-1.691-.225-2.515-.425-.47-.114-.621.039-.804.41-1.423 2.897-3.116 5.63-5.258 8.086-1.5 1.72-3.237 3.176-5.157 4.43-.256.146-.406.5-.797.39-.474-.229-.925-.188-1.406.026-.443.197-.882.424-1.358.532-.579.13-.553.761-.945 1.038-1.642.558-3.326.637-5.027.369-1.277-.202-2.518-.543-3.696-1.077-.235-.125-.467-.257-.72-.348-.269-.272-.775-.199-.944-.62z" fill="#16405D"></path><path d="M23.238 59.646l.982.473c.198.163.42.294.595.482.305.502.437 1.077.718 1.592 1.153 2.11 2.969 3.148 5.387 2.997 2.295-.144 4-1.25 4.93-3.368.082-.187.141-.38.214-.569.472-1.199 1.065-1.532 2.378-1.34 4.654 1.84 9.31 3.678 13.963 5.525 1.131.45 1.625 1.453 1.223 2.42-.393.944-1.5 1.384-2.6.962-2.037-.78-4.057-1.603-6.086-2.408-1.764-.702-3.536-1.389-5.29-2.115-.42-.174-.614-.105-.849.268-3.774 5.977-13.02 5.892-16.524-.132-.267-.459-.515-.326-.861-.188a6115.663 6115.663 0 0 1-11.378 4.522c-1.099.437-2.041.091-2.493-.906-.425-.937.019-1.99 1.068-2.413 4.522-1.826 9.05-3.635 13.574-5.454.343-.137.753-.078 1.05-.348z" fill="#16405D"></path><path d="M11.723 21.635c1.226.168 1.97-.215 2.42-1.363 1.19-3.03 2.964-5.644 5.607-7.653 1.995-1.516 4.258-2.466 6.74-2.877 3.163-.523 6.34-.532 9.438.329 5.041 1.402 8.499 4.596 10.574 9.27 1.024 2.308 1.744 4.715 1.93 7.207.096 1.298-.32 2.638-.552 3.949-.067.376-.489.285-.784.324-3.937.535-7.627-.392-11.255-1.77-3.742-1.422-7.162-3.476-10.781-5.139-2.094-.961-4.263-1.723-6.586-1.802-1.938-.066-3.703.567-5.227 1.773l-1.119.887c-.184-.653-.369-1.258-.976-1.598.067-.555.115-1.118.571-1.537z" fill="#DEDEDE"></path><path d="M11.724 21.635c-.216.504-.188 1.095-.571 1.539-.69-.371-1.399-.244-2.111-.083-.483.107-.681.031-.587-.55 1.068-6.56 4.329-11.78 10.056-15.385 8.04-5.058 18.109-4.608 25.65 1.11 4.646 3.52 7.394 8.2 8.384 13.86.022.125.05.261.017.376-.06.216.27.61-.247.62-.39.008-.721-.027-.838-.559a24.072 24.072 0 0 0-2.68-6.892c-2.315-4.011-5.603-6.967-10.045-8.576-3.748-1.356-7.635-1.622-11.594-1.115-4.78.61-8.88 2.534-12.166 6.004-1.93 2.037-3.402 4.364-4.353 6.991-.463 1.284-.137 2.06 1.085 2.66z" fill="#fff"></path><path d="M8.211 43.274c-1.235-.01-2.124-.688-2.321-1.737-.736-3.937-1.456-7.877-2.154-11.82-.194-1.092.627-2.103 1.823-2.34.834-.163 1.68-.274 2.506-.456.554-.123.755.042.85.59.617 3.548 1.266 7.09 1.908 10.635.237 1.313.49 2.624.723 3.938.044.246.218.567-.245.647l-3.09.543zM52.867 43.272c-.819-.138-1.783-.307-2.748-.459-.349-.055-.298-.245-.258-.493.466-2.86.92-5.72 1.38-8.58.337-2.09.71-4.174 1.001-6.269.08-.584.324-.637.8-.546.86.164 1.725.302 2.585.466 1.13.215 1.898 1.294 1.694 2.428-.7 3.893-1.409 7.783-2.129 11.67-.202 1.086-1.092 1.79-2.325 1.783z" fill="#FC7B54"></path><path d="M37.377 59.677c-1.14.741-2.396 1.205-3.734 1.466.193-.584.404-1.081 1.197-1.145.45-.036.861-.414 1.316-.562.427-.141.91-.285 1.221.24z" fill="#474C54"></path>
		</symbol>
	
		<symbol id="icon-hot" viewBox="0 0 52 52">
			<circle cx="26" cy="26" r="26" fill="#FC7B54"></circle><path d="M26.703 15.953c0 .839.255 1.632.764 2.381.539.749 1.168 1.453 1.887 2.111a36.279 36.279 0 0 1 2.2 2.112c.75.748 1.378 1.707 1.887 2.875.54 1.138.809 2.41.809 3.818 0 2.366-.853 4.387-2.56 6.065-1.678 1.707-3.7 2.56-6.065 2.56-2.366 0-4.402-.853-6.11-2.56C17.839 33.637 17 31.615 17 29.25c0-2.336.824-4.357 2.47-6.064.33-.36.72-.45 1.169-.27.449.18.674.524.674 1.033v3.819c0 .808.269 1.497.808 2.066.57.569 1.243.854 2.022.854.808 0 1.497-.27 2.066-.81a2.815 2.815 0 0 0 .854-2.066c0-.509-.15-1.003-.45-1.482a5.982 5.982 0 0 0-.988-1.303c-.39-.389-.809-.793-1.258-1.213a6.93 6.93 0 0 1-1.078-1.392 5.183 5.183 0 0 1-.539-1.707c-.09-.63.015-1.393.314-2.291.33-.929.884-1.947 1.663-3.055.299-.45.703-.599 1.212-.45.51.15.764.495.764 1.034z" fill="#fff"></path>
		</symbol>
	
		<symbol id="icon-inst-logo" viewBox="0 0 169.063 169.063">
			<path d="M122.406 0H46.654C20.929 0 0 20.93 0 46.655v75.752c0 25.726 20.929 46.655 46.654 46.655h75.752c25.727 0 46.656-20.93 46.656-46.655V46.655C169.063 20.93 148.133 0 122.406 0zm31.657 122.407c0 17.455-14.201 31.655-31.656 31.655H46.654C29.2 154.063 15 139.862 15 122.407V46.655C15 29.201 29.2 15 46.654 15h75.752c17.455 0 31.656 14.201 31.656 31.655v75.752z"></path><path d="M84.531 40.97c-24.021 0-43.563 19.542-43.563 43.563 0 24.02 19.542 43.561 43.563 43.561s43.563-19.541 43.563-43.561c0-24.021-19.542-43.563-43.563-43.563zm0 72.123c-15.749 0-28.563-12.812-28.563-28.561 0-15.75 12.813-28.563 28.563-28.563s28.563 12.813 28.563 28.563c0 15.749-12.814 28.561-28.563 28.561zM129.921 28.251c-2.89 0-5.729 1.17-7.77 3.22a11.053 11.053 0 0 0-3.23 7.78c0 2.891 1.18 5.73 3.23 7.78 2.04 2.04 4.88 3.22 7.77 3.22 2.9 0 5.73-1.18 7.78-3.22 2.05-2.05 3.22-4.89 3.22-7.78 0-2.9-1.17-5.74-3.22-7.78-2.04-2.05-4.88-3.22-7.78-3.22z"></path>
		</symbol>
	
		<symbol id="icon-left-arrow" viewBox="0 0 18 16">
			<path d="M.293 7.293a1 1 0 0 0 0 1.414l6.364 6.364a1 1 0 0 0 1.414-1.414L2.414 8l5.657-5.657A1 1 0 0 0 6.657.93L.293 7.293zM18 7H1v2h17V7z" fill="#4EB7F0"></path>
		</symbol>
	
		<symbol id="icon-like" viewBox="0 0 16 14">
			<path d="M14.21 1.32c.918.782 1.406 1.778 1.464 2.989.059 1.21-.332 2.236-1.171 3.076l-5.655 5.86a.926.926 0 0 1-.674.293.926.926 0 0 1-.673-.293l-5.655-5.86C1.006 6.545.616 5.52.674 4.31c.059-1.211.547-2.207 1.465-2.988C2.94.637 3.858.344 4.893.44a4.067 4.067 0 0 1 2.696 1.26l.585.587.586-.586C9.503.94 10.391.52 11.426.442c1.055-.098 1.983.195 2.784.879z" fill="#4EB7F0"></path>
		</symbol>
	
		<symbol id="icon-like-circuit" viewBox="0 0 18 16">
			<path d="M14.565 2.72c.917.782 1.406 1.778 1.464 2.989.059 1.21-.332 2.236-1.172 3.076l-5.654 5.86a.926.926 0 0 1-.674.293.926.926 0 0 1-.674-.293l-5.654-5.86C1.361 7.945.971 6.92 1.03 5.71c.059-1.21.547-2.207 1.465-2.988.8-.684 1.719-.977 2.754-.88a4.067 4.067 0 0 1 2.695 1.26l.586.587.586-.586c.742-.762 1.631-1.182 2.666-1.26 1.055-.098 1.983.195 2.784.879z" fill="#fff"></path><path d="M14.565 2.72l-.65.761.001.001.649-.761zm.292 6.065l-.707-.707-.006.006-.006.007.72.694zm-5.654 5.86l.707.707.007-.007.006-.006-.72-.694zm-1.348 0l-.72.694.007.006.006.007.707-.707zm-5.654-5.86l.72-.694-.006-.007-.007-.006-.707.707zm.293-6.064l.648.761h.001l-.649-.761zm2.754-.88l-.094.996.01.001.01.001.074-.997zm2.695 1.26l-.716.698.01.01.706-.707zm.586.587l-.707.707.707.707.707-.707-.707-.707zm.586-.586l.707.707.01-.01-.717-.697zm2.666-1.26l.075.997h.009l.008-.001-.092-.996zm2.135 1.64c.707.601 1.07 1.339 1.114 2.275l1.998-.096c-.072-1.485-.686-2.74-1.815-3.702l-1.297 1.523zm1.114 2.275c.046.936-.244 1.685-.88 2.321l1.415 1.414c1.043-1.044 1.535-2.345 1.463-3.831l-1.997.096zm-.892 2.334l-5.654 5.86 1.439 1.388 5.654-5.86-1.44-1.388zm-5.642 5.846l-.017.016s.003-.003.01-.006a.128.128 0 0 1 .04-.01v2c.544 0 1.017-.22 1.381-.585l-1.414-1.415zm.033 0l.015.002a.128.128 0 0 1 .025.008c.008.003.011.006.01.006l-.016-.016-1.415 1.415c.365.364.838.585 1.381.585v-2zm.046.013L2.921 8.09 1.48 9.48l5.655 5.859 1.44-1.389zM2.908 8.078c-.635-.636-.925-1.385-.88-2.32L.03 5.66C-.04 7.147.45 8.448 1.494 9.492l1.414-1.414zm-.88-2.32c.045-.937.408-1.675 1.114-2.276L1.846 1.96C.716 2.921.102 4.176.03 5.661l1.998.096zM3.143 3.48c.598-.51 1.25-.716 2.011-.644l.188-1.99C4.034.722 2.848 1.102 1.845 1.96l1.298 1.521zm2.031-.642c.81.06 1.48.373 2.053.96L8.66 2.404A5.066 5.066 0 0 0 5.322.844L5.174 2.84zm2.062.97l.586.586L9.236 2.98l-.586-.586L7.236 3.81zm2 .586l.586-.586-1.414-1.415-.586.586 1.414 1.415zm.595-.596c.577-.591 1.24-.9 2.026-.96L11.706.845c-1.285.097-2.4.627-3.307 1.559l1.432 1.395zm2.042-.961c.788-.073 1.448.136 2.042.643l1.299-1.52C14.206 1.1 13.01.723 11.689.845l.184 1.992z" fill="#FC7B54"></path>
		</symbol>
	
		<symbol id="icon-logo" viewBox="0 0 176 40">
			<mask id="a" maskUnits="userSpaceOnUse" x="49.563" y="12.213" width="127" height="18" fill="#000"><path fill="#fff" d="M49.563 12.213h127v18h-127z"></path><path d="M50.563 28.833v-15.4h1.728v9.196l8.795-9.196h2.232l-6.564 6.732 6.848 8.668h-2.166l-5.885-7.458-3.26 3.322v4.136h-1.728zM71.325 29.053c-2.349 0-4.434-.821-6.258-2.464l1.073-1.276c.816.748 1.633 1.298 2.45 1.65.831.352 1.765.528 2.8.528 1.021 0 1.845-.242 2.472-.726.628-.499.941-1.144.941-1.936 0-.748-.277-1.342-.831-1.782-.554-.44-1.604-.821-3.15-1.144-1.824-.396-3.136-.931-3.939-1.606-.802-.675-1.203-1.635-1.203-2.882 0-1.217.474-2.222 1.422-3.014.948-.792 2.151-1.188 3.61-1.188 2.027 0 3.821.63 5.382 1.892l-1.006 1.342c-1.357-1.115-2.83-1.672-4.42-1.672-.977 0-1.765.242-2.363.726-.598.47-.897 1.07-.897 1.804 0 .763.285 1.364.854 1.804.583.44 1.684.836 3.303 1.188 1.736.381 2.998.917 3.785 1.606.802.675 1.204 1.606 1.204 2.794 0 1.305-.49 2.361-1.466 3.168-.977.792-2.232 1.188-3.763 1.188zM80.068 28.833v-15.4h11.07v1.584h-9.342v5.258h8.358v1.584h-8.358v5.39h9.452v1.584h-11.18zM94.725 28.833v-15.4h1.619l9.648 12.342V13.433h1.685v15.4h-1.379l-9.889-12.628v12.628h-1.684zM112.009 28.833v-15.4h1.75l5.579 8.404 5.579-8.404h1.751v15.4h-1.729V16.359l-5.579 8.25h-.087l-5.579-8.228v12.452h-1.685zM129.69 28.833l6.979-15.51h1.619l6.979 15.51h-1.859l-1.794-4.07h-8.336l-1.816 4.07h-1.772zm4.267-5.632h6.979l-3.479-7.854-3.5 7.854zM148.287 28.833v-15.4h6.586c1.881 0 3.333.513 4.353 1.54.788.792 1.182 1.819 1.182 3.08 0 1.232-.379 2.23-1.138 2.992-.758.763-1.765 1.261-3.019 1.496l4.704 6.292h-2.122l-4.442-5.984h-4.375v5.984h-1.729zm1.729-7.546h4.704c1.166 0 2.114-.286 2.844-.858.729-.572 1.094-1.357 1.094-2.354 0-.953-.35-1.694-1.05-2.222-.686-.543-1.641-.814-2.867-.814h-4.725v6.248zM168.145 28.833V15.039h-5.141v-1.606h12.033v1.606h-5.142v13.794h-1.75z"></path></mask><path d="M50.563 28.833v-15.4h1.728v9.196l8.795-9.196h2.232l-6.564 6.732 6.848 8.668h-2.166l-5.885-7.458-3.26 3.322v4.136h-1.728zM71.325 29.053c-2.349 0-4.434-.821-6.258-2.464l1.073-1.276c.816.748 1.633 1.298 2.45 1.65.831.352 1.765.528 2.8.528 1.021 0 1.845-.242 2.472-.726.628-.499.941-1.144.941-1.936 0-.748-.277-1.342-.831-1.782-.554-.44-1.604-.821-3.15-1.144-1.824-.396-3.136-.931-3.939-1.606-.802-.675-1.203-1.635-1.203-2.882 0-1.217.474-2.222 1.422-3.014.948-.792 2.151-1.188 3.61-1.188 2.027 0 3.821.63 5.382 1.892l-1.006 1.342c-1.357-1.115-2.83-1.672-4.42-1.672-.977 0-1.765.242-2.363.726-.598.47-.897 1.07-.897 1.804 0 .763.285 1.364.854 1.804.583.44 1.684.836 3.303 1.188 1.736.381 2.998.917 3.785 1.606.802.675 1.204 1.606 1.204 2.794 0 1.305-.49 2.361-1.466 3.168-.977.792-2.232 1.188-3.763 1.188zM80.068 28.833v-15.4h11.07v1.584h-9.342v5.258h8.358v1.584h-8.358v5.39h9.452v1.584h-11.18zM94.725 28.833v-15.4h1.619l9.648 12.342V13.433h1.685v15.4h-1.379l-9.889-12.628v12.628h-1.684zM112.009 28.833v-15.4h1.75l5.579 8.404 5.579-8.404h1.751v15.4h-1.729V16.359l-5.579 8.25h-.087l-5.579-8.228v12.452h-1.685zM129.69 28.833l6.979-15.51h1.619l6.979 15.51h-1.859l-1.794-4.07h-8.336l-1.816 4.07h-1.772zm4.267-5.632h6.979l-3.479-7.854-3.5 7.854zM148.287 28.833v-15.4h6.586c1.881 0 3.333.513 4.353 1.54.788.792 1.182 1.819 1.182 3.08 0 1.232-.379 2.23-1.138 2.992-.758.763-1.765 1.261-3.019 1.496l4.704 6.292h-2.122l-4.442-5.984h-4.375v5.984h-1.729zm1.729-7.546h4.704c1.166 0 2.114-.286 2.844-.858.729-.572 1.094-1.357 1.094-2.354 0-.953-.35-1.694-1.05-2.222-.686-.543-1.641-.814-2.867-.814h-4.725v6.248zM168.145 28.833V15.039h-5.141v-1.606h12.033v1.606h-5.142v13.794h-1.75z" fill="#fff"></path><path d="M50.563 28.833v-15.4h1.728v9.196l8.795-9.196h2.232l-6.564 6.732 6.848 8.668h-2.166l-5.885-7.458-3.26 3.322v4.136h-1.728zM71.325 29.053c-2.349 0-4.434-.821-6.258-2.464l1.073-1.276c.816.748 1.633 1.298 2.45 1.65.831.352 1.765.528 2.8.528 1.021 0 1.845-.242 2.472-.726.628-.499.941-1.144.941-1.936 0-.748-.277-1.342-.831-1.782-.554-.44-1.604-.821-3.15-1.144-1.824-.396-3.136-.931-3.939-1.606-.802-.675-1.203-1.635-1.203-2.882 0-1.217.474-2.222 1.422-3.014.948-.792 2.151-1.188 3.61-1.188 2.027 0 3.821.63 5.382 1.892l-1.006 1.342c-1.357-1.115-2.83-1.672-4.42-1.672-.977 0-1.765.242-2.363.726-.598.47-.897 1.07-.897 1.804 0 .763.285 1.364.854 1.804.583.44 1.684.836 3.303 1.188 1.736.381 2.998.917 3.785 1.606.802.675 1.204 1.606 1.204 2.794 0 1.305-.49 2.361-1.466 3.168-.977.792-2.232 1.188-3.763 1.188zM80.068 28.833v-15.4h11.07v1.584h-9.342v5.258h8.358v1.584h-8.358v5.39h9.452v1.584h-11.18zM94.725 28.833v-15.4h1.619l9.648 12.342V13.433h1.685v15.4h-1.379l-9.889-12.628v12.628h-1.684zM112.009 28.833v-15.4h1.75l5.579 8.404 5.579-8.404h1.751v15.4h-1.729V16.359l-5.579 8.25h-.087l-5.579-8.228v12.452h-1.685zM129.69 28.833l6.979-15.51h1.619l6.979 15.51h-1.859l-1.794-4.07h-8.336l-1.816 4.07h-1.772zm4.267-5.632h6.979l-3.479-7.854-3.5 7.854zM148.287 28.833v-15.4h6.586c1.881 0 3.333.513 4.353 1.54.788.792 1.182 1.819 1.182 3.08 0 1.232-.379 2.23-1.138 2.992-.758.763-1.765 1.261-3.019 1.496l4.704 6.292h-2.122l-4.442-5.984h-4.375v5.984h-1.729zm1.729-7.546h4.704c1.166 0 2.114-.286 2.844-.858.729-.572 1.094-1.357 1.094-2.354 0-.953-.35-1.694-1.05-2.222-.686-.543-1.641-.814-2.867-.814h-4.725v6.248zM168.145 28.833V15.039h-5.141v-1.606h12.033v1.606h-5.142v13.794h-1.75z" stroke="#fff" stroke-width="1.2" mask="url(#a)"></path><path fill-rule="evenodd" clip-rule="evenodd" d="M18.025 0c4.14 0 7.506 8.983 7.506 20s-3.381 20-7.506 20c-4.124 0-7.505-8.983-7.505-20S13.9 0 18.024 0z" fill="url(#b)"></path><path fill-rule="evenodd" clip-rule="evenodd" d="M28.644 12.92c4.8-1.986 9.086-1.688 9.71-.107.624 1.581-2.765 4.493-7.55 6.468-.52.219-1.042.397-1.555.588.513.179 1.035.373 1.58.592 4.8 1.987 8.189 4.883 7.545 6.468-.644 1.585-5.136 1.506-9.951-.469-4.816-1.974-9.702-4.402-9.702-6.595 0-2.193 5.127-4.97 9.923-6.945z" fill="url(#c)"></path><path fill-rule="evenodd" clip-rule="evenodd" d="M28.23 1.883a20.094 20.094 0 0 1 10.195 11.01h-.04l-.03-.092c-1.4-3.425-14.78 1.986-18.485 5.431-1.311 1.192-1.185 2.28.15 3.425 1.73 1.482 5.227 3.222 8.446 4.549 4.717 1.939 9.086 2.284 9.849.794l.134.036a20.074 20.074 0 0 1-10.22 11.069c-8.465-3.576-16.196-10.35-16.196-18.109 0-7.76 7.734-14.557 16.196-18.12v.007zM16.831 39.73c-3.579-1.526-6.32-9.81-6.32-19.746 0-9.936 2.765-18.216 6.32-19.746A19.838 19.838 0 0 0 4.784 6.98 20.048 20.048 0 0 0 0 19.984c0 4.77 1.697 9.383 4.784 13.005a19.838 19.838 0 0 0 12.048 6.74z" fill="url(#d)"></path><defs><linearGradient id="b" x1="15.126" y1="1.589" x2="21.441" y2="41.244" gradientUnits="userSpaceOnUse"><stop stop-color="#4B560B"></stop><stop offset=".17" stop-color="#859D2A"></stop><stop offset=".31" stop-color="#B1C63A"></stop><stop offset=".62" stop-color="#B5BD38"></stop><stop offset=".87" stop-color="#6E893F"></stop><stop offset="1" stop-color="#A9B65E"></stop></linearGradient><linearGradient id="c" x1="28.206" y1="15.435" x2="33.566" y2="31.842" gradientUnits="userSpaceOnUse"><stop stop-color="#4B560B"></stop><stop offset=".17" stop-color="#859D2A"></stop><stop offset=".41" stop-color="#E6FF55"></stop><stop offset=".62" stop-color="#F0F881"></stop><stop offset=".87" stop-color="#78AC1D"></stop><stop offset="1" stop-color="#D7EE51"></stop></linearGradient><radialGradient id="d" cx="0" cy="0" r="1" gradientUnits="userSpaceOnUse" gradientTransform="matrix(42.3759 0 0 42.6182 8.837 4.994)"><stop offset=".005" stop-color="#FFFAD0"></stop><stop offset=".245" stop-color="#D0DE32"></stop><stop offset=".38" stop-color="#D4DF32"></stop><stop offset=".62" stop-color="#BFD734"></stop><stop offset=".75" stop-color="#BFD734"></stop><stop offset=".89" stop-color="#D2FF01"></stop><stop offset="1" stop-color="#BFD734"></stop></radialGradient></defs>
		</symbol>
	
		<symbol id="icon-logo-icon" viewBox="0 0 39 40">
			<path fill-rule="evenodd" clip-rule="evenodd" d="M18.025 0c4.14 0 7.506 8.983 7.506 20s-3.381 20-7.506 20c-4.124 0-7.505-8.983-7.505-20S13.9 0 18.025 0z" fill="url(#a)"></path><path fill-rule="evenodd" clip-rule="evenodd" d="M28.644 12.92c4.8-1.986 9.086-1.688 9.71-.107.624 1.581-2.765 4.493-7.55 6.468-.52.219-1.042.397-1.555.588a36.42 36.42 0 0 1 1.58.592c4.8 1.987 8.189 4.883 7.545 6.468-.644 1.585-5.136 1.506-9.951-.469-4.816-1.974-9.702-4.402-9.702-6.595 0-2.193 5.127-4.97 9.923-6.945z" fill="url(#b)"></path><path fill-rule="evenodd" clip-rule="evenodd" d="M28.23 1.883a20.094 20.094 0 0 1 10.195 11.01h-.04l-.03-.092c-1.4-3.425-14.78 1.986-18.485 5.431-1.311 1.192-1.185 2.28.15 3.425 1.73 1.482 5.227 3.222 8.446 4.549 4.717 1.939 9.086 2.284 9.849.794l.134.036a20.075 20.075 0 0 1-10.22 11.069c-8.465-3.576-16.196-10.35-16.196-18.109 0-7.76 7.734-14.557 16.196-18.12v.007zM16.831 39.73c-3.579-1.526-6.32-9.81-6.32-19.746 0-9.936 2.765-18.216 6.32-19.746A19.838 19.838 0 0 0 4.784 6.98 20.048 20.048 0 0 0 0 19.984c0 4.77 1.697 9.383 4.784 13.005a19.837 19.837 0 0 0 12.048 6.74z" fill="url(#c)"></path><defs><linearGradient id="a" x1="15.126" y1="1.589" x2="21.441" y2="41.244" gradientUnits="userSpaceOnUse"><stop stop-color="#4B560B"></stop><stop offset=".17" stop-color="#859D2A"></stop><stop offset=".31" stop-color="#B1C63A"></stop><stop offset=".62" stop-color="#B5BD38"></stop><stop offset=".87" stop-color="#6E893F"></stop><stop offset="1" stop-color="#A9B65E"></stop></linearGradient><linearGradient id="b" x1="28.206" y1="15.435" x2="33.566" y2="31.841" gradientUnits="userSpaceOnUse"><stop stop-color="#4B560B"></stop><stop offset=".17" stop-color="#859D2A"></stop><stop offset=".41" stop-color="#E6FF55"></stop><stop offset=".62" stop-color="#F0F881"></stop><stop offset=".87" stop-color="#78AC1D"></stop><stop offset="1" stop-color="#D7EE51"></stop></linearGradient><radialGradient id="c" cx="0" cy="0" r="1" gradientUnits="userSpaceOnUse" gradientTransform="matrix(42.3759 0 0 42.6182 8.837 4.994)"><stop offset=".005" stop-color="#FFFAD0"></stop><stop offset=".245" stop-color="#D0DE32"></stop><stop offset=".38" stop-color="#D4DF32"></stop><stop offset=".62" stop-color="#BFD734"></stop><stop offset=".75" stop-color="#BFD734"></stop><stop offset=".89" stop-color="#D2FF01"></stop><stop offset="1" stop-color="#BFD734"></stop></radialGradient></defs>
		</symbol>
	
		<symbol id="icon-logo2" viewBox="0 0 155 36">
			<mask id="a" maskUnits="userSpaceOnUse" x="43.353" y="10.591" width="111" height="16" fill="#000"><path fill="#fff" d="M43.353 10.591h111v16h-111z"></path><path d="M44.353 25.292V11.783h1.516v8.067l7.715-8.067h1.958l-5.758 5.906 6.007 7.603h-1.9L48.73 18.75l-2.86 2.914v3.628h-1.516zM62.566 25.485c-2.06 0-3.89-.72-5.49-2.161l.941-1.12c.717.657 1.433 1.14 2.15 1.448.729.309 1.548.463 2.456.463.896 0 1.619-.212 2.169-.637.55-.437.825-1.003.825-1.698 0-.656-.243-1.177-.73-1.563-.486-.386-1.407-.72-2.763-1.004-1.6-.347-2.75-.817-3.454-1.409-.704-.591-1.056-1.434-1.056-2.528 0-1.067.416-1.949 1.248-2.643.831-.695 1.887-1.042 3.166-1.042 1.779 0 3.352.553 4.721 1.66l-.883 1.176c-1.19-.977-2.482-1.466-3.876-1.466-.858 0-1.548.212-2.073.636-.525.412-.787.94-.787 1.583 0 .669.25 1.196.749 1.582.512.386 1.477.734 2.898 1.043 1.522.334 2.629.804 3.32 1.408.703.592 1.055 1.409 1.055 2.451 0 1.145-.428 2.071-1.286 2.78-.857.694-1.957 1.041-3.3 1.041zM70.235 25.292V11.783h9.711v1.39h-8.195v4.612h7.331v1.39h-7.33v4.728h8.29v1.39h-9.807zM83.092 25.292V11.783h1.42l8.463 10.827V11.783h1.478v13.51h-1.209L84.57 14.214v11.077h-1.478zM98.254 25.292V11.783h1.535l4.894 7.372 4.894-7.372h1.535v13.51h-1.516V14.35l-4.894 7.237h-.077l-4.894-7.218v10.923h-1.477zM113.763 25.292l6.122-13.605h1.421l6.122 13.605h-1.632l-1.573-3.57h-7.312l-1.593 3.57h-1.555zm3.743-4.94h6.122l-3.052-6.89-3.07 6.89zM130.077 25.292V11.783h5.776c1.651 0 2.924.45 3.819 1.351.691.695 1.037 1.596 1.037 2.702 0 1.08-.333 1.956-.998 2.625-.666.669-1.548 1.106-2.649 1.312l4.127 5.52h-1.862l-3.896-5.25h-3.838v5.25h-1.516zm1.516-6.62h4.126c1.024 0 1.855-.25 2.495-.752.64-.502.959-1.19.959-2.065 0-.836-.307-1.486-.921-1.949-.601-.476-1.439-.714-2.514-.714h-4.145v5.48zM147.496 25.292v-12.1h-4.51v-1.409h10.555v1.41h-4.51v12.1h-1.535z"></path></mask><path d="M44.353 25.292V11.783h1.516v8.067l7.715-8.067h1.958l-5.758 5.906 6.007 7.603h-1.9L48.73 18.75l-2.86 2.914v3.628h-1.516zM62.566 25.485c-2.06 0-3.89-.72-5.49-2.161l.941-1.12c.717.657 1.433 1.14 2.15 1.448.729.309 1.548.463 2.456.463.896 0 1.619-.212 2.169-.637.55-.437.825-1.003.825-1.698 0-.656-.243-1.177-.73-1.563-.486-.386-1.407-.72-2.763-1.004-1.6-.347-2.75-.817-3.454-1.409-.704-.591-1.056-1.434-1.056-2.528 0-1.067.416-1.949 1.248-2.643.831-.695 1.887-1.042 3.166-1.042 1.779 0 3.352.553 4.721 1.66l-.883 1.176c-1.19-.977-2.482-1.466-3.876-1.466-.858 0-1.548.212-2.073.636-.525.412-.787.94-.787 1.583 0 .669.25 1.196.749 1.582.512.386 1.477.734 2.898 1.043 1.522.334 2.629.804 3.32 1.408.703.592 1.055 1.409 1.055 2.451 0 1.145-.428 2.071-1.286 2.78-.857.694-1.957 1.041-3.3 1.041zM70.235 25.292V11.783h9.711v1.39h-8.195v4.612h7.331v1.39h-7.33v4.728h8.29v1.39h-9.807zM83.092 25.292V11.783h1.42l8.463 10.827V11.783h1.478v13.51h-1.209L84.57 14.214v11.077h-1.478zM98.254 25.292V11.783h1.535l4.894 7.372 4.894-7.372h1.535v13.51h-1.516V14.35l-4.894 7.237h-.077l-4.894-7.218v10.923h-1.477zM113.763 25.292l6.122-13.605h1.421l6.122 13.605h-1.632l-1.573-3.57h-7.312l-1.593 3.57h-1.555zm3.743-4.94h6.122l-3.052-6.89-3.07 6.89zM130.077 25.292V11.783h5.776c1.651 0 2.924.45 3.819 1.351.691.695 1.037 1.596 1.037 2.702 0 1.08-.333 1.956-.998 2.625-.666.669-1.548 1.106-2.649 1.312l4.127 5.52h-1.862l-3.896-5.25h-3.838v5.25h-1.516zm1.516-6.62h4.126c1.024 0 1.855-.25 2.495-.752.64-.502.959-1.19.959-2.065 0-.836-.307-1.486-.921-1.949-.601-.476-1.439-.714-2.514-.714h-4.145v5.48zM147.496 25.292v-12.1h-4.51v-1.409h10.555v1.41h-4.51v12.1h-1.535z" fill="#333"></path><path d="M44.353 25.292V11.783h1.516v8.067l7.715-8.067h1.958l-5.758 5.906 6.007 7.603h-1.9L48.73 18.75l-2.86 2.914v3.628h-1.516zM62.566 25.485c-2.06 0-3.89-.72-5.49-2.161l.941-1.12c.717.657 1.433 1.14 2.15 1.448.729.309 1.548.463 2.456.463.896 0 1.619-.212 2.169-.637.55-.437.825-1.003.825-1.698 0-.656-.243-1.177-.73-1.563-.486-.386-1.407-.72-2.763-1.004-1.6-.347-2.75-.817-3.454-1.409-.704-.591-1.056-1.434-1.056-2.528 0-1.067.416-1.949 1.248-2.643.831-.695 1.887-1.042 3.166-1.042 1.779 0 3.352.553 4.721 1.66l-.883 1.176c-1.19-.977-2.482-1.466-3.876-1.466-.858 0-1.548.212-2.073.636-.525.412-.787.94-.787 1.583 0 .669.25 1.196.749 1.582.512.386 1.477.734 2.898 1.043 1.522.334 2.629.804 3.32 1.408.703.592 1.055 1.409 1.055 2.451 0 1.145-.428 2.071-1.286 2.78-.857.694-1.957 1.041-3.3 1.041zM70.235 25.292V11.783h9.711v1.39h-8.195v4.612h7.331v1.39h-7.33v4.728h8.29v1.39h-9.807zM83.092 25.292V11.783h1.42l8.463 10.827V11.783h1.478v13.51h-1.209L84.57 14.214v11.077h-1.478zM98.254 25.292V11.783h1.535l4.894 7.372 4.894-7.372h1.535v13.51h-1.516V14.35l-4.894 7.237h-.077l-4.894-7.218v10.923h-1.477zM113.763 25.292l6.122-13.605h1.421l6.122 13.605h-1.632l-1.573-3.57h-7.312l-1.593 3.57h-1.555zm3.743-4.94h6.122l-3.052-6.89-3.07 6.89zM130.077 25.292V11.783h5.776c1.651 0 2.924.45 3.819 1.351.691.695 1.037 1.596 1.037 2.702 0 1.08-.333 1.956-.998 2.625-.666.669-1.548 1.106-2.649 1.312l4.127 5.52h-1.862l-3.896-5.25h-3.838v5.25h-1.516zm1.516-6.62h4.126c1.024 0 1.855-.25 2.495-.752.64-.502.959-1.19.959-2.065 0-.836-.307-1.486-.921-1.949-.601-.476-1.439-.714-2.514-.714h-4.145v5.48zM147.496 25.292v-12.1h-4.51v-1.409h10.555v1.41h-4.51v12.1h-1.535z" stroke="#333" stroke-width="1.2" mask="url(#a)"></path><path fill-rule="evenodd" clip-rule="evenodd" d="M15.812 0c3.631 0 6.584 7.88 6.584 17.544 0 9.664-2.966 17.544-6.584 17.544-3.618 0-6.584-7.88-6.584-17.544C9.228 7.88 12.194 0 15.812 0z" fill="url(#b)"></path><path fill-rule="evenodd" clip-rule="evenodd" d="M25.126 11.334c4.21-1.743 7.97-1.482 8.518-.095.547 1.387-2.426 3.942-6.622 5.674-.458.192-.915.349-1.365.516.45.157.907.328 1.386.52 4.21 1.742 7.183 4.282 6.618 5.673-.565 1.39-4.505 1.32-8.729-.411-4.224-1.732-8.51-3.862-8.51-5.785 0-1.924 4.497-4.36 8.704-6.092z" fill="url(#c)"></path><path fill-rule="evenodd" clip-rule="evenodd" d="M24.762 1.652a17.626 17.626 0 0 1 8.944 9.657h-.034l-.028-.08c-1.227-3.004-12.964 1.743-16.214 4.764-1.15 1.045-1.04 2 .132 3.004 1.517 1.3 4.584 2.826 7.408 3.99 4.138 1.701 7.97 2.005 8.64.698l.117.03a17.61 17.61 0 0 1-8.964 9.71c-7.427-3.136-14.208-9.078-14.208-15.885 0-6.806 6.785-12.769 14.207-15.895v.007zM14.765 34.85c-3.14-1.338-5.544-8.605-5.544-17.321 0-8.716 2.425-15.98 5.544-17.32A17.401 17.401 0 0 0 4.197 6.121 17.586 17.586 0 0 0 0 17.53c0 4.184 1.489 8.23 4.197 11.407a17.401 17.401 0 0 0 10.568 5.914z" fill="url(#d)"></path><defs><linearGradient id="b" x1="13.268" y1="1.394" x2="18.808" y2="36.179" gradientUnits="userSpaceOnUse"><stop stop-color="#4B560B"></stop><stop offset=".17" stop-color="#859D2A"></stop><stop offset=".31" stop-color="#B1C63A"></stop><stop offset=".62" stop-color="#B5BD38"></stop><stop offset=".87" stop-color="#6E893F"></stop><stop offset="1" stop-color="#A9B65E"></stop></linearGradient><linearGradient id="c" x1="24.742" y1="13.54" x2="29.444" y2="27.931" gradientUnits="userSpaceOnUse"><stop stop-color="#4B560B"></stop><stop offset=".17" stop-color="#859D2A"></stop><stop offset=".41" stop-color="#E6FF55"></stop><stop offset=".62" stop-color="#F0F881"></stop><stop offset=".87" stop-color="#78AC1D"></stop><stop offset="1" stop-color="#D7EE51"></stop></linearGradient><radialGradient id="d" cx="0" cy="0" r="1" gradientUnits="userSpaceOnUse" gradientTransform="matrix(37.1718 0 0 37.3844 7.752 4.38)"><stop offset=".005" stop-color="#FFFAD0"></stop><stop offset=".245" stop-color="#D0DE32"></stop><stop offset=".38" stop-color="#D4DF32"></stop><stop offset=".62" stop-color="#BFD734"></stop><stop offset=".75" stop-color="#BFD734"></stop><stop offset=".89" stop-color="#D2FF01"></stop><stop offset="1" stop-color="#BFD734"></stop></radialGradient></defs>
		</symbol>
	
		<symbol id="icon-loupe" viewBox="0 0 448.098 448.098">
			<path d="M184.08 0C82.46 0 .08 82.38.08 184s82.38 184 184 184 184-82.38 184-184C367.992 82.416 285.664.088 184.08 0zm0 304c-66.274 0-120-53.726-120-120s53.726-120 120-120 120 53.726 120 120c-.088 66.238-53.762 119.912-120 120zM438.64 393.44l-64-64c-12.504-12.504-32.776-12.504-45.28 0s-12.504 32.776 0 45.28l64 64c12.504 12.504 32.776 12.504 45.28 0s12.504-32.776 0-45.28z"></path>
		</symbol>
	
		<symbol id="icon-menu-list" viewBox="0 0 405.333 405.333">
			<path d="M85.333 53.333h256V96h-256zM0 53.333h42.667V96H0zM0 138.667h42.667v42.667H0zM0 224h42.667v42.667H0zM0 309.333h42.667V352H0zM85.333 309.333h320V352h-320zM85.333 138.667h320v42.667h-320zM85.333 224h277.333v42.667H85.333z"></path>
		</symbol>
	
		<symbol id="icon-menu-tbl" viewBox="0 0 384 384">
			<path d="M0 277.333h384V320H0zM0 170.667h384v42.667H0zM0 64h384v42.667H0z"></path>
		</symbol>
	
		<symbol id="icon-menu-tile" viewBox="0 0 472.615 472.615">
			<path d="M0 0h211.692v211.692H0zM260.923 0h211.692v211.692H260.923zM0 260.923h211.692v211.692H0zM260.923 260.923h211.692v211.692H260.923z"></path>
		</symbol>
	
		<symbol id="icon-natt_icon" viewBox="0 0 74 66">
			<path d="M19.312 49.79h.987v7.556h10.194V49.79h.987v16.075h-.988v-7.602H20.3v7.601h-.987V49.791zM39.653 49.79h1.056l6.015 16.075h-1.056l-2.09-5.557H36.76l-2.067 5.557h-1.056l6.016-16.074zm3.581 9.6L40.8 52.867c-.252-.69-.596-1.93-.596-1.93h-.046s-.345 1.24-.597 1.93l-2.457 6.521h6.13zM50.489 50.709h-5.992v-.919h12.971v.919h-5.992v15.156h-.987V50.71zM64.746 50.709h-5.992v-.919h12.971v.919h-5.992v15.156h-.987V50.71z" fill="#3E484E"></path><path d="M21.684 25.413l10.443 7.597 5.051-18.868-15.494 11.271zM37.35 14.016l-5.107 19.078 9.36 6.81V10.923l-4.252 3.093z" fill="#ED1C25"></path><path d="M24.27 30.04l-5.52 2.445 4.26 6.125 6.521-4.744-5.26-3.827zM9.611 19.581v16.805l8.935-3.958L9.611 19.58zM24.145 29.948L9.653 19.406l9.018 12.967 5.474-2.425zM9.611 36.532v11.824l13.29-9.667-4.277-6.15-9.013 3.993z" fill="#01A4E1"></path><path d="M0 42.922v5.912l6.652 1.479 1.752-1.27L0 42.924zM0 55.133l6.507-4.715L0 48.972v6.16zM44.018 15.947l5.365-6.708V3.903L44.018 0v15.947zM52.19 5.945l-2.673 3.341v4.277l6.573-4.78-3.9-2.838zM49.517 4v5.071l2.564-3.205L49.517 4zM44.018 17.564l5.365-3.903V9.454l-5.365 6.708v1.402zM45.125 20.181l1.416 4.604 2.457-1.787-3.873-2.817zM44.018 19.375v7.245l2.408-1.752-1.482-4.819-.926-.674zM73.182 31.753c.216 0 .216-.336 0-.336s-.217.336 0 .336z" fill="#D3DADE"></path>
		</symbol>
	
		<symbol id="icon-phone" viewBox="0 0 16 16">
			<path d="M14.473 1.607c.37.079.556.303.556.674 0 3.75-1.328 6.953-3.984 9.61-2.656 2.656-5.86 3.984-9.61 3.984-.37 0-.595-.185-.673-.557l-.703-3.046c-.098-.372.039-.635.41-.792l3.281-1.406c.313-.136.586-.068.82.205l1.436 1.758a10.109 10.109 0 0 0 3.047-2.139 10.618 10.618 0 0 0 2.138-3.046L9.434 5.387c-.274-.215-.342-.489-.205-.82l1.406-3.282c.156-.351.42-.478.79-.38l3.048.702z" fill="#fff"></path>
		</symbol>
	
		<symbol id="icon-play" viewBox="0 0 13 15">
			<path d="M1.25 1.87L11 7.5l-9.75 5.63V1.87z" fill="#fff" stroke="#333" stroke-width="2"></path>
		</symbol>
	
		<symbol id="icon-region-icon" viewBox="0 0 16 16">
			<path d="M13.066.992c.547-.234 1.045-.117 1.494.352.47.449.586.947.352 1.494L9.316 15.025c-.156.332-.39.567-.703.704a1.496 1.496 0 0 1-.908.117c-.293-.059-.557-.215-.79-.469a1.36 1.36 0 0 1-.323-.908V9.313H1.436c-.489 0-.87-.176-1.143-.528a1.468 1.468 0 0 1-.234-1.201c.097-.45.37-.781.82-.996L13.066.992z" fill="#4EB7F0"></path>
		</symbol>
	
		<symbol id="icon-right-arrow" viewBox="0 0 18 16">
			<path d="M17.707 7.293a1 1 0 0 1 0 1.414l-6.364 6.364a1 1 0 0 1-1.414-1.414L15.586 8 9.929 2.343A1 1 0 0 1 11.343.93l6.364 6.364zM0 7h17v2H0V7z" fill="#4EB7F0"></path>
		</symbol>
	
		<symbol id="icon-right-arrow-white" viewBox="0 0 18 16">
			<path d="M17.707 7.293a1 1 0 0 1 0 1.414l-6.364 6.364a1 1 0 0 1-1.414-1.414L15.586 8 9.929 2.343A1 1 0 0 1 11.343.93l6.364 6.364zM0 7h17v2H0V7z"></path>
		</symbol>
	
		<symbol id="icon-star-off" viewBox="0 0 20 19">
			<path fill="#9b9b9b" d="M10 0l2.36 7.28L20 7.25l-6.19 4.47L16.19 19 10 14.48 3.83 19l2.36-7.28L0 7.25l7.66.03z"></path>
		</symbol>
	
		<symbol id="icon-star-on" viewBox="0 0 20 19">
			<path fill="#7ed321" d="M10 0l2.36 7.28L20 7.25l-6.19 4.47L16.19 19 10 14.48 3.83 19l2.36-7.28L0 7.25l7.66.03z"></path>
		</symbol>
	
		<symbol id="icon-telephone" viewBox="0 0 512 512">
			<path d="M493.4 24.6l-104-24c-11.3-2.6-22.9 3.3-27.5 13.9l-48 112c-4.2 9.8-1.4 21.3 6.9 28l60.6 49.6c-36 76.7-98.9 140.5-177.2 177.2l-49.6-60.6c-6.8-8.3-18.2-11.1-28-6.9l-112 48C3.9 366.5-2 378.1.6 389.4l24 104C27.1 504.2 36.7 512 48 512c256.1 0 464-207.5 464-464 0-11.2-7.7-20.9-18.6-23.4z"></path>
		</symbol>
	
		<symbol id="icon-vk-logo" viewBox="0 0 548.358 548.358">
			<path d="M545.451 400.298c-.664-1.431-1.283-2.618-1.858-3.569-9.514-17.135-27.695-38.167-54.532-63.102l-.567-.571-.284-.28-.287-.287h-.288c-12.18-11.611-19.893-19.418-23.123-23.415-5.91-7.614-7.234-15.321-4.004-23.13 2.282-5.9 10.854-18.36 25.696-37.397 7.807-10.089 13.99-18.175 18.556-24.267 32.931-43.78 47.208-71.756 42.828-83.939l-1.701-2.847c-1.143-1.714-4.093-3.282-8.846-4.712-4.764-1.427-10.853-1.663-18.278-.712l-82.224.568c-1.332-.472-3.234-.428-5.712.144l-3.713.859-1.431.715-1.136.859c-.952.568-1.999 1.567-3.142 2.995-1.137 1.423-2.088 3.093-2.848 4.996-8.952 23.031-19.13 44.444-30.553 64.238-7.043 11.803-13.511 22.032-19.418 30.693-5.899 8.658-10.848 15.037-14.842 19.126-4 4.093-7.61 7.372-10.852 9.849-3.237 2.478-5.708 3.525-7.419 3.142-1.715-.383-3.33-.763-4.859-1.143-2.663-1.714-4.805-4.045-6.42-6.995-1.622-2.95-2.714-6.663-3.285-11.136-.568-4.476-.904-8.326-1-11.563-.089-3.233-.048-7.806.145-13.706.198-5.903.287-9.897.287-11.991 0-7.234.141-15.085.424-23.555.288-8.47.521-15.181.716-20.125.194-4.949.284-10.185.284-15.705s-.336-9.849-1-12.991a44.442 44.442 0 0 0-2.99-9.137c-1.335-2.95-3.289-5.232-5.853-6.852-2.569-1.618-5.763-2.902-9.564-3.856-10.089-2.283-22.936-3.518-38.547-3.71-35.401-.38-58.148 1.906-68.236 6.855-3.997 2.091-7.614 4.948-10.848 8.562-3.427 4.189-3.905 6.475-1.431 6.851 11.422 1.711 19.508 5.804 24.267 12.275l1.715 3.429c1.334 2.474 2.666 6.854 3.999 13.134 1.331 6.28 2.19 13.227 2.568 20.837.95 13.897.95 25.793 0 35.689-.953 9.9-1.853 17.607-2.712 23.127-.859 5.52-2.143 9.993-3.855 13.418-1.715 3.426-2.856 5.52-3.428 6.28-.571.76-1.047 1.239-1.425 1.427a21.387 21.387 0 0 1-7.71 1.431c-2.667 0-5.901-1.334-9.707-4-3.805-2.666-7.754-6.328-11.847-10.992-4.093-4.665-8.709-11.184-13.85-19.558-5.137-8.374-10.467-18.271-15.987-29.691l-4.567-8.282c-2.855-5.328-6.755-13.086-11.704-23.267-4.952-10.185-9.329-20.037-13.134-29.554-1.521-3.997-3.806-7.04-6.851-9.134l-1.429-.859c-.95-.76-2.475-1.567-4.567-2.427a30.301 30.301 0 0 0-6.567-1.854l-78.229.568c-7.994 0-13.418 1.811-16.274 5.428l-1.143 1.711c-.571.953-.859 2.475-.859 4.57 0 2.094.571 4.664 1.714 7.707 11.42 26.84 23.839 52.725 37.257 77.659 13.418 24.934 25.078 45.019 34.973 60.237 9.897 15.229 19.985 29.602 30.264 43.112 10.279 13.515 17.083 22.176 20.412 25.981 3.333 3.812 5.951 6.662 7.854 8.565l7.139 6.851c4.568 4.569 11.276 10.041 20.127 16.416 8.853 6.379 18.654 12.659 29.408 18.85 10.756 6.181 23.269 11.225 37.546 15.126 14.275 3.905 28.169 5.472 41.684 4.716h32.834c6.659-.575 11.704-2.669 15.133-6.283l1.136-1.431c.764-1.136 1.479-2.901 2.139-5.276.668-2.379 1-5 1-7.851-.195-8.183.428-15.558 1.852-22.124 1.423-6.564 3.045-11.513 4.859-14.846 1.813-3.33 3.859-6.14 6.136-8.418 2.282-2.283 3.908-3.666 4.862-4.142.948-.479 1.705-.804 2.276-.999 4.568-1.522 9.944-.048 16.136 4.429 6.187 4.473 11.99 9.996 17.418 16.56 5.425 6.57 11.943 13.941 19.555 22.124 7.617 8.186 14.277 14.271 19.985 18.274l5.708 3.426c3.812 2.286 8.761 4.38 14.853 6.283 6.081 1.902 11.409 2.378 15.984 1.427l73.087-1.14c7.229 0 12.854-1.197 16.844-3.572 3.998-2.379 6.373-5 7.139-7.851.764-2.854.805-6.092.145-9.712-.677-3.611-1.344-6.136-2.008-7.563z"></path>
		</symbol>
	
		<symbol id="icon-x" viewBox="0 0 12 12">
			<path d="M10.5 1L5.75 5.75M1 10.5l4.75-4.75m0 0L1 1l9.5 9.5"></path>
		</symbol>
	
		<symbol id="icon-yt-logo" viewBox="-21 -117 682.66672 682">
			<path d="M626.813 64.035c-7.375-27.418-28.993-49.031-56.407-56.414C520.324-6.082 319.992-6.082 319.992-6.082s-200.324 0-250.406 13.184c-26.887 7.375-49.031 29.52-56.406 56.933C0 114.113 0 217.97 0 217.97s0 104.379 13.18 153.933c7.382 27.414 28.992 49.028 56.41 56.41C120.195 442.02 320 442.02 320 442.02s200.324 0 250.406-13.184c27.418-7.379 49.032-28.992 56.414-56.406 13.176-50.082 13.176-153.934 13.176-153.934s.527-104.383-13.183-154.46zM256.21 313.915V122.022l166.586 95.946zm0 0"></path>
		</symbol>
	
</svg>
